<?xml version="1.0" encoding="UTF-8"?>
<svg width="32px" height="32px" viewBox="0 0 32 32" version="1.1" xmlns="http://www.w3.org/2000/svg" xmlns:xlink="http://www.w3.org/1999/xlink">
    <!-- Generator: Sketch 51 (57462) - http://www.bohemiancoding.com/sketch -->
    <title>dribbble</title>
    <desc>Created with Sketch.</desc>
    <defs></defs>
    <g id="Site" stroke="none" stroke-width="1" fill="none" fill-rule="evenodd">
        <g id="Home-(Desktop)-Copy-7" transform="translate(-480.000000, -476.000000)" fill="#000000" fill-rule="nonzero">
            <g id="dribbble" transform="translate(480.000000, 476.000000)">
                <path d="M16,31.8967742 C7.22580645,31.8967742 0.103225806,24.7741935 0.103225806,16 C0.103225806,7.22580645 7.22580645,0.103225806 16,0.103225806 C24.7741935,0.103225806 31.8967742,7.22580645 31.8967742,16 C31.8967742,24.7741935 24.7741935,31.8967742 16,31.8967742 Z M29.4193548,18.1677419 C28.9548387,18.0129032 25.1870968,16.8774194 20.9032258,17.6 C22.6580645,22.5032258 23.3806452,26.4258065 23.5354839,27.3032258 C26.683871,25.1870968 28.8,21.9354839 29.4193548,18.1677419 Z M21.316129,28.4903226 C21.1096774,27.3032258 20.283871,23.1741935 18.4258065,18.1677419 C18.3741935,18.1677419 18.3741935,18.1677419 18.3225806,18.2193548 C10.6322581,20.9032258 7.89677419,26.2193548 7.63870968,26.7354839 C9.90967742,28.4903226 12.8,29.5741935 16,29.5741935 C17.8580645,29.6258065 19.6645161,29.2129032 21.316129,28.4903226 Z M5.88387097,25.083871 C6.19354839,24.5677419 9.90967742,18.3741935 16.9806452,16.1548387 C17.1354839,16.1032258 17.3419355,16.0516129 17.5483871,16 C17.1870968,15.2258065 16.8258065,14.4516129 16.4129032,13.7290323 C9.6,15.7419355 3.04516129,15.6387097 2.42580645,15.6387097 C2.42580645,15.7935484 2.42580645,15.8967742 2.42580645,16.0516129 C2.37419355,19.5096774 3.71612903,22.7096774 5.88387097,25.083871 Z M2.68387097,13.2645161 C3.30322581,13.2645161 8.87741935,13.316129 15.2258065,11.5612903 C13.0064516,7.53548387 10.5290323,4.18064516 10.1677419,3.66451613 C6.4,5.52258065 3.56129032,9.03225806 2.68387097,13.2645161 Z M12.8,2.83870968 C13.1612903,3.35483871 15.6387097,6.70967742 17.9096774,10.7870968 C22.7612903,8.98064516 24.7741935,6.19354839 25.0322581,5.83225806 C22.6580645,3.76774194 19.5096774,2.42580645 16.0516129,2.42580645 C14.8645161,2.42580645 13.8322581,2.58064516 12.8,2.83870968 Z M26.5290323,7.43225806 C26.2193548,7.84516129 24,10.7354839 18.9419355,12.7483871 C19.2516129,13.4193548 19.5612903,14.0903226 19.8709677,14.7096774 C19.9741935,14.9677419 20.0774194,15.1741935 20.1806452,15.4322581 C24.7225806,14.8645161 29.2129032,15.7935484 29.6258065,15.8967742 C29.5741935,12.6967742 28.3870968,9.75483871 26.5290323,7.43225806 Z" id="Shape"></path>
            </g>
        </g>
    </g>
</svg>