<?xml version="1.0" encoding="UTF-8"?>
<svg width="32px" height="32px" viewBox="0 0 32 32" version="1.1" xmlns="http://www.w3.org/2000/svg" xmlns:xlink="http://www.w3.org/1999/xlink">
    <!-- Generator: Sketch 51 (57462) - http://www.bohemiancoding.com/sketch -->
    <title>instagram</title>
    <desc>Created with Sketch.</desc>
    <defs>
        <polygon id="path-1" points="0 0 32 0 32 32 0 32"></polygon>
    </defs>
    <g id="Site" stroke="none" stroke-width="1" fill="none" fill-rule="evenodd">
        <g id="Home-(Desktop)-Copy-7" transform="translate(-430.000000, -476.000000)">
            <g id="instagram" transform="translate(430.000000, 476.000000)">
                <mask id="mask-2" fill="white">
                    <use xlink:href="#path-1"></use>
                </mask>
                <g id="Clip-2"></g>
                <path d="M26.460875,7.459125 C26.460875,8.5195 25.60125,9.379125 24.540875,9.379125 C23.4805,9.379125 22.62075,8.5195 22.62075,7.459125 C22.62075,6.39875 23.4805,5.539125 24.540875,5.539125 C25.60125,5.539125 26.460875,6.39875 26.460875,7.459125 M16,21.333375 C13.0545,21.333375 10.666625,18.9455 10.666625,16 C10.666625,13.0545 13.0545,10.666625 16,10.666625 C18.9455,10.666625 21.333375,13.0545 21.333375,16 C21.333375,18.9455 18.9455,21.333375 16,21.333375 M16,7.78375 C11.462375,7.78375 7.78375,11.46225 7.78375,16 C7.78375,20.537625 11.462375,24.21625 16,24.21625 C20.537625,24.21625 24.21625,20.537625 24.21625,16 C24.21625,11.46225 20.537625,7.78375 16,7.78375 M16,0 C11.654625,0 11.109875,0.018375 9.40325,0.09625 C7.70025,0.174 6.537125,0.444375 5.519375,0.84 C4.46725,1.248875 3.575,1.796 2.6855,2.6855 C1.796,3.574875 1.248875,4.467125 0.84,5.519375 C0.4445,6.537125 0.174,7.700125 0.09625,9.40325 C0.018375,11.10975 0,11.654625 0,16 C0,20.345375 0.018375,20.89025 0.09625,22.59675 C0.174,24.29975 0.4445,25.462875 0.84,26.480625 C1.248875,27.532625 1.796,28.425 2.6855,29.3145 C3.575,30.204 4.46725,30.751125 5.519375,31.16 C6.537125,31.555625 7.70025,31.826 9.40325,31.90375 C11.109875,31.981625 11.654625,32 16,32 C20.345375,32 20.890375,31.981625 22.59675,31.90375 C24.299875,31.826 25.462875,31.555625 26.480625,31.16 C27.53275,30.751125 28.425125,30.204 29.314625,29.3145 C30.204,28.425 30.751125,27.53275 31.160125,26.480625 C31.555625,25.462875 31.826,24.29975 31.90375,22.59675 C31.981625,20.89025 32,20.345375 32,16 C32,11.654625 31.981625,11.10975 31.90375,9.40325 C31.826,7.700125 31.555625,6.537125 31.160125,5.519375 C30.751125,4.467125 30.204,3.574875 29.314625,2.6855 C28.425125,1.796 27.53275,1.248875 26.480625,0.84 C25.462875,0.444375 24.299875,0.174 22.59675,0.09625 C20.890375,0.018375 20.345375,0 16,0 M16,2.882875 C20.27225,2.882875 20.77825,2.899125 22.465375,2.976125 C24.025375,3.047375 24.8725,3.308 25.4365,3.527 C26.183125,3.81725 26.71625,4.164125 27.276,4.723875 C27.836,5.28375 28.182625,5.816875 28.473,6.563625 C28.692125,7.1275 28.95275,7.97475 29.023875,9.534625 C29.100875,11.22175 29.117125,11.72775 29.117125,16 C29.117125,20.272125 29.100875,20.778125 29.023875,22.46525 C28.95275,24.025375 28.692125,24.8725 28.473,25.436375 C28.182625,26.183125 27.836,26.716125 27.276,27.276125 C26.71625,27.835875 26.183125,28.18275 25.4365,28.472875 C24.8725,28.692 24.025375,28.952625 22.465375,29.023875 C20.7785,29.10075 20.2725,29.117 16,29.117 C11.727625,29.117 11.2215,29.10075 9.534625,29.023875 C7.97475,28.952625 7.1275,28.692 6.56375,28.472875 C5.816875,28.18275 5.28375,27.835875 4.723875,27.276125 C4.164125,26.716125 3.817375,26.183125 3.527125,25.436375 C3.308,24.8725 3.047375,24.025375 2.97625,22.465375 C2.899125,20.778125 2.882875,20.272125 2.882875,16 C2.882875,11.72775 2.899125,11.22175 2.97625,9.534625 C3.047375,7.97475 3.308,7.1275 3.527125,6.563625 C3.817375,5.816875 4.164125,5.28375 4.723875,4.723875 C5.28375,4.164125 5.816875,3.81725 6.56375,3.527 C7.1275,3.308 7.97475,3.047375 9.534625,2.976125 C11.22175,2.899125 11.727875,2.882875 16,2.882875" id="Fill-1" fill="#000000" mask="url(#mask-2)"></path>
            </g>
        </g>
    </g>
</svg>