<?xml version="1.0" encoding="UTF-8"?>
<svg width="112px" height="112px" viewBox="0 0 112 112" version="1.1" xmlns="http://www.w3.org/2000/svg" xmlns:xlink="http://www.w3.org/1999/xlink">
    <!-- Generator: Sketch 52.6 (67491) - http://www.bohemiancoding.com/sketch -->
    <title>Group 46</title>
    <desc>Created with Sketch.</desc>
    <defs>
        <polygon id="path-1" points="0 0.0857286713 111.913734 0.0857286713 111.913734 112 0 112"></polygon>
    </defs>
    <g id="Symbols" stroke="none" stroke-width="1" fill="none" fill-rule="evenodd">
        <g id="Footer" transform="translate(-429.000000, -42.000000)">
            <g id="Group-46" transform="translate(429.000000, 42.000000)">
                <path d="M24.9595942,49.4999415 C24.9427654,48.5828943 24.915571,47.6663154 24.8888645,46.7497366 C24.8627676,45.8331577 24.8147201,44.9165789 24.6280179,44 L22.3719821,44 C22.1852799,44.9165789 22.1371104,45.8331577 22.1116233,46.7497366 C22.084429,47.6663154 22.0577224,48.5828943 22.0404058,49.4999415 C22.02126,50.4165203 22.0079676,51.3330992 22.0027239,52.249678 C21.9980899,52.7082602 22.0004069,53.1662569 22.0021141,53.6247219 C22.0033336,54.0833041 22.0038214,54.5414179 22.0136992,55 L24.9863008,55 C24.9961786,54.5414179 24.9966664,54.0833041 24.9978859,53.6247219 C24.9995931,53.1662569 25.0019101,52.7082602 24.9972761,52.249678 C24.9920324,51.3330992 24.97874,50.4165203 24.9595942,49.4999415" id="Fill-1" fill="#000000"></path>
                <path d="M17.0999319,44 C17.0259803,44.9165789 17.0050598,45.8331577 17,46.7497366 L17.0107035,49.4999415 C17.0107035,50.4165203 17.0282184,51.3330992 17.0397976,52.249678 C17.0448574,52.7082602 17.0532256,53.1662569 17.0648049,53.6247219 C17.0754111,54.0833041 17.0846551,54.5414179 17.0999319,55 L18.9000681,55 C18.9153449,54.5414179 18.9250754,54.0833041 18.9352924,53.6247219 C18.9467744,53.1662569 18.9551426,52.7082602 18.9602024,52.249678 C18.9717816,51.3330992 18.9893938,50.4165203 18.9898803,49.4999415 L19,46.7497366 C18.9949402,45.8331577 18.974117,44.9165789 18.9000681,44 L17.0999319,44 Z" id="Fill-3" fill="#000000"></path>
                <path d="M13.9855897,49.4999415 C13.9796836,48.5828943 13.9602507,47.6663154 13.9484385,46.7497366 C13.943485,46.2917398 13.9308155,45.8331577 13.9194796,45.375161 C13.90862,44.9165789 13.8977604,44.4579967 13.8809948,44 L12.1185995,44 C12.1023102,44.4579967 12.0910695,44.9165789 12.080591,45.375161 C12.0692551,45.8331577 12.0565856,46.2917398 12.0516321,46.7497366 C12.0394389,47.6663154 12.020387,48.5828943 12.0140046,49.4999415 C12.0054313,50.4165203 12.0022877,51.3330992 12.0009541,52.249678 C11.9963816,53.1662569 12.0040977,54.0833041 12.1185995,55 L13.8809948,55 C13.995973,54.0833041 14.0032127,53.1662569 13.9992118,52.249678 C13.9977829,51.3330992 13.9946393,50.4165203 13.9855897,49.4999415" id="Fill-5" fill="#000000"></path>
                <polygon id="Fill-7" fill="#000000" points="23.8499459 65 22.1500541 65 22 68 24 68"></polygon>
                <polygon id="Fill-9" fill="#000000" points="18.9789189 65 17.0215135 65 17 68 19 68"></polygon>
                <polygon id="Fill-11" fill="#000000" points="13.9968747 68 14 65 12 65 12.0031253 68"></polygon>
                <polygon id="Fill-13" fill="#000000" points="22.3007779 71 22 74 25 74 24.6992221 71"></polygon>
                <polygon id="Fill-15" fill="#000000" points="18.9594595 71 17.0406486 71 17 74 19 74"></polygon>
                <polygon id="Fill-17" fill="#000000" points="12.1690546 74 13.8308556 74 14 71 12 71"></polygon>
                <polygon id="Fill-19" fill="#000000" points="22.1048965 78 22 81 24 81 23.8951035 78"></polygon>
                <polygon id="Fill-21" fill="#000000" points="17.1011564 78 17 81 19 81 18.8988436 78"></polygon>
                <polygon id="Fill-23" fill="#000000" points="12.0030177 81 13.9968745 81 14 78 12 78"></polygon>
                <polygon id="Fill-25" fill="#000000" points="22.0164324 84 22 87 24 87 23.9835676 84"></polygon>
                <polygon id="Fill-27" fill="#000000" points="17.0215135 84 17 87 19 87 18.9789189 84"></polygon>
                <path d="M9.95898518,49.4999415 C9.94215665,48.5828943 9.91557247,47.6663154 9.8882566,46.7497366 C9.86276993,45.8331577 9.81460133,44.9165789 9.62802422,44 L7.37190458,44 C7.18532747,44.9165789 7.13715887,45.8331577 7.11106247,46.7497366 C7.08386855,47.6663154 7.05716241,48.5828943 7.04033389,49.4999415 C7.02131034,50.4165203 7.0078963,51.3330992 7.00277458,52.249678 C6.99801869,52.7082602 7.00045761,53.1662569 7.00216485,53.6247219 C7.00277458,54.0833041 7.00387209,54.5414179 7.01313997,55 L9.98630104,55 C9.99605671,54.5414179 9.99666644,54.0833041 9.9978859,53.6247219 C9.99959314,53.1662569 10.0019101,52.7082602 9.99727617,52.249678 C9.9920325,51.3330992 9.9787404,50.4165203 9.95898518,49.4999415" id="Fill-29" fill="#000000"></path>
                <polygon id="Fill-31" fill="#000000" points="8.84995406 65 7.15004594 65 7 68 9 68"></polygon>
                <polygon id="Fill-33" fill="#000000" points="7.30124438 71 7 74 10 74 9.69927411 71"></polygon>
                <polygon id="Fill-35" fill="#000000" points="35.1645209 75 36.8359308 75 37 69 35 69"></polygon>
                <path d="M42.6540425,69 L40.3461655,69 C40.1984614,69.4998463 40.1231124,69.9996925 40.0703431,70.4996541 C40.0188213,71.0000769 39.9968653,71.4999231 40.0003583,71.9997694 C40.0022295,72.5000769 40.0265558,73.0000384 40.0774538,73.4998847 C40.1320944,73.999731 40.2055722,74.5001537 40.3461655,75 L42.6540425,75 C42.7946358,74.5001537 42.8681137,73.999731 42.9226294,73.4998847 C42.9730285,73.0000384 42.9979785,72.5000769 42.999725,71.9997694 C43.002719,71.4999231 42.9813867,71.0000769 42.9297402,70.4996541 C42.8769709,69.9996925 42.8017466,69.4998463 42.6540425,69" id="Fill-37" fill="#000000"></path>
                <path d="M47.6324235,69 L45.3678823,69 C45.1659098,69.4998463 45.0849983,69.9996925 45.0332199,70.4996541 C44.987317,71.0000769 44.9977217,71.4999231 45.0129002,71.9997694 C45.0291804,72.5000769 45.0617409,73.0000384 45.115845,73.4998847 C45.172887,73.999731 45.2455971,74.5001537 45.3678823,75 L47.6324235,75 C47.7539743,74.5001537 47.8268068,73.999731 47.8843384,73.4998847 C47.9379529,73.0000384 47.9711254,72.5000769 47.9874056,71.9997694 C48.0019721,71.4999231 48.0129888,71.0000769 47.9664739,70.4996541 C47.9151851,69.9996925 47.8342737,69.4998463 47.6324235,69" id="Fill-39" fill="#000000"></path>
                <polygon id="Fill-41" fill="#000000" points="52.7337247 69 50.2662753 69 50 75 53 75"></polygon>
                <g id="Group-45">
                    <mask id="mask-2" fill="white">
                        <use xlink:href="#path-1"></use>
                    </mask>
                    <g id="Clip-44"></g>
                    <path d="M97.699435,52.2430434 C97.699435,53.8422601 98.1541483,55.3479385 98.9534769,56.6706797 C95.3901762,57.5408336 92.7446937,60.7532531 92.7446937,64.5847497 C92.7446937,65.2521622 92.8265958,65.8999944 92.9782042,66.5211972 C92.1256168,66.0711832 91.1671832,65.7988476 90.152358,65.7350713 L90.152358,47.440358 L89.7072671,47.440358 L88.0229035,47.440358 L66.5232671,47.440358 C65.9583441,44.4423161 65.3802182,41.4475189 64.7787077,38.457421 C64.1346797,35.1961063 63.4607776,31.9416168 62.7949315,28.6851133 L62.5401622,27.4709035 C64.497421,27.2671552 66.443379,27.0459524 68.3841902,26.8725259 C70.8801902,26.6512112 73.3777566,26.4975888 75.8838266,26.4077427 C78.389449,26.3177846 80.9003301,26.2810853 83.4138965,26.2768336 C84.6690573,26.2864559 85.9263441,26.2789594 87.1809455,26.3023441 C88.4356587,26.3279664 89.6907077,26.352358 90.9427357,26.4071832 C93.4482462,26.5022881 95.9459245,26.6544559 98.4424839,26.8841622 C98.9296448,26.9277986 99.4194909,26.9804979 99.9076587,27.0278266 C103.078568,31.8156308 105.49647,37.1437427 106.972834,42.849365 C101.726064,43.5381483 97.699435,47.4754909 97.699435,52.2430434 Z M95.0502601,91.3269035 L90.152358,91.3269035 L90.152358,87.679351 C93.2643021,87.2103161 95.8273231,85.6119944 97.0021483,83.4670993 C97.4749874,84.5877706 98.1643301,85.5700364 99.001365,86.3731692 C97.7797706,88.1016168 96.4660923,89.7600224 95.0502601,91.3269035 Z M88.0229035,55.3782601 C85.8268755,55.3405538 83.6308476,55.305421 81.4348196,55.2868476 L81.4315748,53.9609734 L81.403379,49.5104 L88.0229035,49.5104 L88.0229035,55.3782601 Z M88.0229035,63.4959664 C85.7374769,63.4368895 83.8728615,63.4146238 81.453393,63.4140643 C81.4497007,62.0918825 81.4460084,60.7691413 81.4438825,59.4469594 L81.4396308,57.5865958 C83.6340923,57.5679105 85.8290014,57.5333371 88.0229035,57.4950713 L88.0229035,63.4959664 Z M88.0229035,65.9265119 C85.400358,66.5802741 83.3361343,68.720358 82.8165259,71.3988476 C82.3644979,71.3897846 81.9119105,71.3812811 81.4593231,71.3737846 L81.461449,70.4185958 C81.4640224,68.8458965 81.4618965,67.2731972 81.4587636,65.7010573 C83.8765538,65.6999385 85.7396028,65.6776727 88.0229035,65.6185958 L88.0229035,65.9265119 Z M81.4502601,75.9929734 L81.4545119,73.9825678 C81.9012811,73.9750713 82.3484979,73.9665678 82.7958266,73.9575049 C82.8580364,74.3074909 82.9453091,74.6489734 83.0569734,74.9787077 C82.471351,75.2711832 81.9331692,75.6121063 81.4502601,75.9929734 Z M88.0229035,88.2048895 C86.0018685,88.1309315 82.6330294,88.0761063 81.4209455,88.0330294 L81.4273231,86.8757706 L81.4305678,85.6189315 C83.090428,86.9368615 85.4258685,87.7698685 88.0229035,87.8240224 L88.0229035,88.2048895 Z M88.0229035,91.3269035 L85.3507916,91.3269035 C85.3476587,91.3269035 85.3439664,91.3263441 85.3402741,91.3263441 L81.4029315,91.2757706 L81.4108755,89.8057846 C82.6262042,89.7627077 85.9997427,89.708442 88.0229035,89.6344839 L88.0229035,91.3269035 Z M73.3171133,89.9636587 C74.916442,89.9487776 76.5162182,89.9312112 78.1155469,89.9008895 C78.5149874,89.8918266 78.9138685,89.8813091 79.3131972,89.8705678 L79.3206937,91.2491413 C77.312414,91.2263161 75.3041343,91.211435 73.2958545,91.1949874 C73.3032392,90.784358 73.3107357,90.3737287 73.3171133,89.9636587 Z M79.2924979,53.9609734 L79.2892531,55.2661483 C78.3952671,55.2569734 77.5007217,55.2490294 76.6066238,55.2474629 L73.388386,55.2379524 L73.3750713,53.9609734 L73.3309874,51.2181483 C73.3219245,50.6490853 73.3086098,50.0794629 73.2968615,49.5104 L79.3206937,49.5104 L79.2924979,53.9609734 Z M79.0303441,82.0705119 C79.0962462,82.3417287 79.1808336,82.6081343 79.2871273,82.8677147 L79.2961902,86.8757706 L79.3025678,87.9676867 C78.9069315,87.9575049 78.5111832,87.946428 78.1155469,87.9378126 C76.5262881,87.9074909 74.9365818,87.8900364 73.3468755,87.8756028 C73.3516867,87.5421762 73.3559385,87.2091972 73.3607497,86.8757706 L73.405393,82.0784559 C75.2807497,82.0827077 77.1555469,82.0837147 79.0303441,82.0705119 Z M79.2706797,63.4188755 C78.3825119,63.4220084 77.4947916,63.427379 76.6066238,63.4417007 C75.5540923,63.460386 74.5010014,63.4986517 73.4484699,63.5359105 L73.4325818,59.4469594 L73.4138965,57.6360503 L76.6066238,57.6258685 C77.4990434,57.6248615 78.3915748,57.616358 79.2839944,57.6072951 L79.2797427,59.4469594 C79.2781762,60.7708196 79.274372,62.0951273 79.2706797,63.4188755 Z M79.2696727,74.0107636 L79.2787357,78.7820084 C79.1802741,79.0250294 79.0989315,79.2739804 79.0356028,79.5271832 C77.1667357,79.5137566 75.2971972,79.5148755 73.4283301,79.5185678 L73.4357147,78.647407 L73.4436587,75.9041343 L73.4490294,74.0224 C75.3892811,74.0277706 77.329421,74.0287776 79.2696727,74.0107636 Z M79.2627357,70.4185958 L79.2643021,71.3451413 C77.328414,71.3270154 75.392414,71.3285818 73.4565259,71.3339524 L73.4590993,70.4185958 C73.4676028,68.8055049 73.4623441,67.1923021 73.4559664,65.5792112 C74.506372,65.6164699 75.5562182,65.6547357 76.6066238,65.673421 C77.4926657,65.6877427 78.3792671,65.6931133 79.265421,65.6962462 C79.2616168,67.2706238 79.2594909,68.8443301 79.2627357,70.4185958 Z M71.1519664,51.2181483 L71.1073231,53.9609734 L71.0940084,55.2304559 C69.140442,55.2240783 67.1869874,55.221393 65.2339804,55.2314629 C65.223351,53.3243301 65.2042182,51.4176448 65.1723301,49.5104 L71.185421,49.5104 C71.1737846,50.0794629 71.1604699,50.6490853 71.1519664,51.2181483 Z M70.3345119,89.9902881 C70.6115469,89.9876028 70.8886937,89.9849175 71.1662881,89.9827916 C71.1716587,90.3822322 71.1796028,90.7822322 71.1865399,91.1816727 C70.5360224,91.178428 69.8856168,91.1763021 69.2356587,91.1736168 L68.8373371,89.9977846 L70.3345119,89.9902881 Z M71.0770014,82.0699524 L71.1216448,86.8757706 C71.1264559,87.2028196 71.1307077,87.5288615 71.135407,87.8554629 C70.868442,87.8533371 70.6014769,87.8512112 70.3345119,87.8485259 L68.1054769,87.8373371 L66.1402741,82.0358266 C67.7858126,82.0518266 69.431351,82.0635748 71.0770014,82.0699524 Z M71.0339245,74.0107636 L71.0391832,75.9041343 L71.0471273,78.647407 L71.0546238,79.5271832 C69.1377566,79.5351273 67.2215608,79.5500084 65.3046937,79.5695888 L65.2142881,79.3021762 L65.2249175,73.9554909 C67.1614769,73.9810014 69.097365,74.0001343 71.0339245,74.0107636 Z M67.8725259,65.4383441 C68.9240503,65.4431552 69.9754629,65.465421 71.0269874,65.4973091 C71.0206098,67.1375888 71.0146797,68.7783161 71.0237427,70.4185958 L71.026428,71.3455888 C69.0942322,71.3562182 67.1624839,71.3749035 65.2302881,71.400414 L65.232414,70.4185958 L65.240358,65.4356587 C66.1178965,65.4356587 66.995435,65.4372252 67.8725259,65.4383441 Z M65.2446098,57.642428 C67.1858685,57.6519385 69.1271273,57.6498126 71.0689455,57.6435469 L71.0498126,59.4469594 L71.0339245,63.6172531 C69.9802741,63.6497007 68.9266238,63.6719664 67.8725259,63.6767776 C66.9965538,63.6773371 66.1201343,63.6789035 65.2436028,63.6789035 L65.2505399,59.4469594 C65.2488615,58.845449 65.2467357,58.2439385 65.2446098,57.642428 Z M46.5701483,107.878064 C45.2767217,107.644666 43.9949315,107.377701 42.7360783,107.051099 L82.3448056,96.4018126 L82.6017007,97.3154909 L46.5701483,107.878064 Z M30.9879385,102.427659 L53.5082182,96.3437427 L53.7975608,97.3740084 L32.9792112,103.449421 C32.307435,103.12226 31.6431552,102.781897 30.9879385,102.427659 Z M7.37473566,35.6539524 C8.75163077,32.3857007 10.451435,29.2860643 12.4305119,26.3906238 C14.4940643,26.4290014 16.5556028,26.4980364 18.6116587,26.621449 C20.4901483,26.7396028 22.3655049,26.8864 24.2451133,27.0677706 C26.1251692,27.2490294 28.0148476,27.4432671 29.9135888,27.6107636 C30.8645259,27.6867357 31.8144559,27.7703161 32.7675189,27.8282741 C33.2434909,27.8596028 33.7190154,27.8989874 34.1955469,27.9239385 L35.6246937,28.0011413 C36.1012252,28.0298965 36.5777566,28.0500364 37.0537287,28.0660364 L38.4827636,28.1201902 C39.4359385,28.1553231 40.387435,28.1665119 41.3399385,28.1910154 C42.2919944,28.2149594 43.2429315,28.2111552 44.194428,28.2223441 C45.1459245,28.239351 46.0978685,28.2197706 47.0499245,28.2064559 L50.6665958,28.1665119 L50.3452531,29.5195748 L49.9426797,31.2182601 L49.5501762,32.9197427 L48.7661762,36.3224839 L47.9822881,39.7253371 L47.2201063,43.133449 L46.4579245,46.5410014 L45.714428,49.9539245 C44.7901203,54.1939245 43.8971413,58.4417566 43.0573091,62.7024559 L31.8708476,62.568414 L32.1665678,36.7192392 L30.4944,35.0471832 L7.37473566,35.6539524 Z M16.8635189,91.3269035 C15.7327776,90.0748755 14.6611133,88.7691413 13.6526657,87.413393 L14.4983161,87.413393 C14.5622042,86.8720783 14.5722741,86.3305399 14.5695888,85.7891133 C14.5653371,85.2476867 14.5498965,84.706372 14.4983161,84.1649455 L12.428386,84.1649455 C12.3826238,84.6446098 12.3719944,85.124386 12.3656168,85.6046098 C11.2555748,83.9728336 10.242428,82.2714629 9.31756084,80.516386 L9.21014825,77.636386 L7.91448392,77.636386 C6.2855049,74.0262042 5.04623217,70.2053371 4.26335105,66.2201063 L4.25216224,64.5799385 L3.9691972,64.5799385 C3.65602238,62.6651972 3.43627413,60.7196867 3.3357986,58.7428476 L29.0806937,59.2783441 L29.4476867,91.3269035 L16.8635189,91.3269035 Z M3.26777063,56.0430993 C3.26777063,55.4363301 3.29272168,54.8352671 3.31342098,54.2337566 L4.27398042,54.2337566 C4.29154685,53.7954909 4.30273566,53.3577846 4.31437203,52.9195189 C4.32768671,52.4812531 4.33730909,52.0435469 4.34312727,51.6052811 C4.35644196,50.729421 4.37658182,49.853449 4.37714126,48.977365 L4.38888951,46.3490014 C4.3862042,46.0059524 4.37714126,45.6629035 4.36707133,45.3198545 C4.90525315,42.7259524 5.63655385,40.202428 6.54228811,37.7622601 L28.8408056,38.3478825 L29.0578685,57.282372 L3.31241399,57.817421 C3.29272168,57.2269874 3.26777063,56.6382322 3.26777063,56.0430993 Z M54.0830993,28.981393 L55.4075189,23.555379 L56.9302042,17.1582881 L57.5098965,19.6520503 L59.7335608,28.981393 L54.0830993,28.981393 Z M60.2351552,31.0513231 C60.4669874,32.0065119 60.6994909,32.9622601 60.932442,33.917449 L52.8657566,33.917449 L52.9130853,33.7291413 L53.3374769,32.0357147 L53.5779245,31.0513231 L60.2351552,31.0513231 Z M51.6264839,38.8530573 L52.0626238,37.1159944 L52.3461483,35.9874909 L61.4397427,35.9874909 C61.6742601,36.9432392 61.9110154,37.898428 62.1497846,38.8530573 L51.6264839,38.8530573 Z M50.3649455,43.7892252 L51.1041902,40.9230993 L62.6651413,40.9230993 C62.9044699,41.8792951 63.145365,42.8344839 63.3884979,43.7892252 L50.3649455,43.7892252 Z M47.7758545,53.661449 C48.0317427,52.7068196 48.285393,51.7510713 48.5374769,50.7953231 L53.7316587,50.7953231 L53.7247217,53.661449 L47.7758545,53.661449 Z M46.4345399,58.5976168 C46.6978126,57.6429874 46.9589594,56.6872392 47.217421,55.7314909 L53.7199105,55.7314909 L53.7129734,58.5976168 L46.4345399,58.5976168 Z M45.2788476,62.7290853 C45.4735329,62.0418685 45.6697846,61.3552112 45.8623441,60.6675469 L53.7081622,60.6675469 L53.7029035,62.8295608 L45.2788476,62.7290853 Z M47.1126937,85.0732531 C45.7596308,85.0307357 44.4061203,85.0546797 43.0524979,85.0600503 L41.0224,85.0935049 L38.9923021,85.1498965 C38.567351,85.1658965 38.1429594,85.183351 37.7180084,85.2020364 L37.0606657,83.2623441 L51.1728895,83.0512112 L51.1728895,81.4678825 L36.3778126,81.2461203 L35.6836587,79.1967776 C36.7867636,79.2558545 37.8893091,79.3000503 38.9923021,79.3319385 C40.3459245,79.3728895 41.699435,79.4020923 43.0524979,79.4180923 C43.7295329,79.4292811 44.4061203,79.4362182 45.0825958,79.4366657 L47.1126937,79.4431552 C47.7897287,79.4366657 48.4663161,79.4186517 49.143351,79.3713231 C49.8198266,79.3271273 50.4963021,79.2676028 51.1728895,79.1548196 L51.1728895,77.0847776 C50.4963021,76.9721063 49.8198266,76.9120224 49.143351,76.8678266 C48.4663161,76.8199385 47.7897287,76.8019245 47.1126937,76.7959944 L45.0825958,76.8019245 C44.4061203,76.8029315 43.7295329,76.8098685 43.0524979,76.8210573 C41.699435,76.8370573 40.3459245,76.8657007 38.9923021,76.9072112 C37.6509874,76.9460364 36.3091133,77.0018685 34.9672392,77.0827636 L31.8112112,67.7641622 L31.8405259,65.1868196 L53.6980923,64.9251133 L53.6358825,91.3269035 L53.4491413,91.3269035 C53.4077427,91.3140364 53.3544839,91.2890853 53.3237147,91.2869594 L52.9582881,91.2767776 L52.232358,91.2608895 C51.7493371,91.252386 51.2712392,91.2481343 50.797393,91.2508196 C50.3218685,91.2508196 49.8549594,91.2630154 49.3825678,91.2699524 L47.9764699,91.3129175 C47.8455608,91.3182881 47.7105119,91.3220923 47.5791552,91.3269035 L39.7927497,91.3269035 L38.5408336,87.6310154 C38.6913231,87.6368336 38.8418126,87.6432112 38.9923021,87.6490294 L41.0224,87.705421 L43.0524979,87.7389874 C44.4061203,87.7442462 45.7596308,87.7681902 47.1126937,87.7251133 C48.4663161,87.679351 49.8198266,87.6117706 51.1728895,87.4342042 L51.1728895,85.3642741 C49.8198266,85.1865958 48.4663161,85.1190154 47.1126937,85.0732531 Z M54.7718825,47.440358 L53.7369175,48.4753231 L53.736358,48.725393 L49.0837147,48.725393 L49.4688336,47.2659245 L49.8314629,45.8591552 L63.9192951,45.8591552 C64.0549035,46.3862601 64.1915189,46.9132531 64.3282462,47.440358 L54.7718825,47.440358 Z M63.0076308,55.2484699 C61.0376168,55.2692811 59.0671552,55.2947916 57.0971413,55.3399944 L55.8143441,51.5521343 L55.8095329,49.5104 L63.069393,49.5104 C63.0369455,51.4229035 63.0182601,53.3355189 63.0076308,55.2484699 Z M63.0006937,65.4436028 L63.0093091,70.4185958 L63.011435,71.4312951 C62.8577007,71.434428 62.7045259,71.4371133 62.5507916,71.4396867 L60.5270713,65.4659804 C61.3520224,65.4559105 62.176414,65.448414 63.0006937,65.4436028 Z M62.9981203,63.6715189 C61.968414,63.6657007 60.9387077,63.6549594 59.9091133,63.6406378 L57.845449,57.5487776 C59.5622601,57.5839105 61.2796308,57.6072951 62.9965538,57.6253091 C62.9948755,58.2321902 62.9927497,58.8396308 62.9911832,59.4469594 L62.9981203,63.6715189 Z M55.9568895,3.35342098 C73.3846937,3.35342098 88.8556867,11.8646378 98.4531133,24.9424559 C95.9789315,24.7265119 93.4941203,24.5818406 91.0135608,24.4968056 C85.9417846,24.3377007 80.8885818,24.3042462 75.8168056,24.4599944 C73.2819804,24.5392112 70.7429035,24.6850014 68.2145678,24.8982601 C66.1695888,25.0653091 64.1389315,25.2679385 62.1167776,25.4508755 L60.7488336,18.9265678 L58.6480224,9.18088951 L55.2596028,9.15381259 L51.9578965,22.7246098 L51.1553231,26.1072112 L47.0334769,26.193365 C46.0904839,26.210372 45.1474909,26.2331972 44.2029315,26.220442 C43.259379,26.2124979 42.3142601,26.219435 41.3718266,26.1997427 C37.5978406,26.1476028 33.8376168,25.9912951 30.0864559,25.650372 C28.2095329,25.4790713 26.3289175,25.2806937 24.4359944,25.092386 C22.5426238,24.9040783 20.6390713,24.7493371 18.7340643,24.624358 C17.1049734,24.525449 15.476442,24.464358 13.8479105,24.4116587 C23.4711832,11.6328056 38.7641622,3.35342098 55.9568895,3.35342098 Z M55.9568895,0.0857286713 C25.1019524,0.0857286713 -3.35664336e-05,25.1881622 -3.35664336e-05,56.0430993 C-3.35664336e-05,86.8980364 25.1019524,112.000022 55.9568895,112.000022 C86.8118266,112.000022 111.913813,86.8980364 111.913813,56.0430993 C111.913813,25.1881622 86.8118266,0.0857286713 55.9568895,0.0857286713 Z" id="Fill-43" fill="#000000" mask="url(#mask-2)"></path>
                </g>
            </g>
        </g>
    </g>
</svg>