<svg width="500" height="500" viewBox="0 0 500 500" fill="none" xmlns="http://www.w3.org/2000/svg">
<rect width="500" height="500" fill="#EEEEEE"/>
<path fill-rule="evenodd" clip-rule="evenodd" d="M185.6 211.359C185.6 207.37 185.6 205.376 185.864 203.707C187.319 194.522 194.523 187.318 203.708 185.863C205.377 185.599 207.371 185.599 211.36 185.599H288.641C292.629 185.599 294.624 185.599 296.292 185.863C305.478 187.318 312.682 194.522 314.137 203.707C314.401 205.376 314.401 207.37 314.401 211.359V288.64C314.401 292.628 314.401 294.623 314.137 296.291C312.682 305.477 305.478 312.681 296.292 314.136C294.624 314.4 292.629 314.4 288.641 314.4H211.36C207.371 314.4 205.377 314.4 203.708 314.136C194.523 312.681 187.319 305.477 185.864 296.291C185.6 294.623 185.6 292.628 185.6 288.64V211.359ZM211.364 217.459C211.364 214.089 214.096 211.358 217.465 211.358H282.544C285.913 211.358 288.645 214.089 288.645 217.459V282.538C288.645 285.907 285.913 288.639 282.544 288.639H217.465C214.096 288.639 211.364 285.907 211.364 282.538V217.459ZM234.067 236.259C233.9 236.773 233.9 237.409 233.9 238.68V261.318C233.9 262.59 233.9 263.225 234.067 263.74C234.405 264.779 235.22 265.595 236.26 265.932C236.774 266.099 237.41 266.099 238.681 266.099H261.319C262.591 266.099 263.226 266.099 263.741 265.932C264.78 265.595 265.595 264.779 265.933 263.74C266.1 263.225 266.1 262.59 266.1 261.318V238.68C266.1 237.409 266.1 236.773 265.933 236.259C265.595 235.219 264.78 234.404 263.741 234.066C263.226 233.899 262.591 233.899 261.319 233.899H238.681C237.41 233.899 236.774 233.899 236.26 234.066C235.22 234.404 234.405 235.219 234.067 236.259Z" fill="black"/>
</svg>
