<?xml version="1.0" encoding="UTF-8"?>
<svg width="16px" height="16px" viewBox="0 0 16 16" version="1.1" xmlns="http://www.w3.org/2000/svg" xmlns:xlink="http://www.w3.org/1999/xlink">
    <!-- Generator: Sketch 52.6 (67491) - http://www.bohemiancoding.com/sketch -->
    <title>Group 6</title>
    <desc>Created with Sketch.</desc>
    <defs>
        <polygon id="path-1" points="0 0.9903 15.9996 0.9903 15.9996 17 0 17"></polygon>
    </defs>
    <g id="Working" stroke="none" stroke-width="1" fill="none" fill-rule="evenodd">
        <g id="Home" transform="translate(-437.000000, -2000.000000)">
            <g id="Group-6" transform="translate(437.000000, 1999.000000)">
                <g id="Group-3" transform="translate(0.000000, 0.009600)">
                    <mask id="mask-2" fill="white">
                        <use xlink:href="#path-1"></use>
                    </mask>
                    <g id="Clip-2"></g>
                    <path d="M10.0196,10.9513 C7.8256,10.9513 6.0396,9.1653 6.0396,6.9713 C6.0396,4.7763 7.8256,2.9903 10.0196,2.9903 C12.2146,2.9903 13.9996,4.7763 13.9996,6.9713 C13.9996,9.1653 12.2146,10.9513 10.0196,10.9513 M10.0196,0.9903 C6.7166,0.9903 4.0396,3.6683 4.0396,6.9713 C4.0396,8.2613 4.4526,9.4523 5.1466,10.4303 L-0.0004,15.5763 L-0.0004,16.9903 L1.4046,17.0003 L6.5606,11.8443 C7.5386,12.5383 8.7296,12.9513 10.0196,12.9513 C13.3226,12.9513 15.9996,10.2733 15.9996,6.9713 C15.9996,3.6683 13.3226,0.9903 10.0196,0.9903" id="Fill-1" fill="#000000" mask="url(#mask-2)"></path>
                </g>
                <polygon id="Fill-4" fill="#000000" points="12.3907 6.2079 10.7697 6.2079 10.7697 4.5859 9.2697 4.5859 9.2697 6.2079 7.6487 6.2079 7.6487 7.7079 9.2697 7.7079 9.2697 9.3289 10.7697 9.3289 10.7697 7.7079 12.3907 7.7079"></polygon>
            </g>
        </g>
    </g>
</svg>