<?xml version="1.0" encoding="UTF-8"?>
<svg width="32px" height="32px" viewBox="0 0 32 32" version="1.1" xmlns="http://www.w3.org/2000/svg" xmlns:xlink="http://www.w3.org/1999/xlink">
    <!-- Generator: Sketch 51 (57462) - http://www.bohemiancoding.com/sketch -->
    <title>Group 3</title>
    <desc>Created with Sketch.</desc>
    <defs>
        <polygon id="path-1" points="0 0 32 0 32 32 0 32"></polygon>
    </defs>
    <g id="Site" stroke="none" stroke-width="1" fill="none" fill-rule="evenodd">
        <g id="Home-(Desktop)-Copy-7" transform="translate(-530.000000, -476.000000)">
            <g id="Group-3" transform="translate(530.000000, 476.000000)">
                <mask id="mask-2" fill="white">
                    <use xlink:href="#path-1"></use>
                </mask>
                <g id="Clip-2"></g>
                <path d="M27.2676213,27.2682222 L22.524576,27.2682222 L22.524576,19.8417778 C22.524576,18.07 22.4921321,15.7922222 20.0583881,15.7922222 C17.5884224,15.7922222 17.2102054,17.7215556 17.2102054,19.7135556 L17.2102054,27.2682222 L12.4673824,27.2682222 L12.4673824,11.9968889 L17.0204303,11.9968889 L17.0204303,14.0833333 L17.0835405,14.0833333 C17.716865,12.8828889 19.2650658,11.6168889 21.5741448,11.6168889 C26.3803003,11.6168889 27.2676213,14.7797778 27.2676213,18.8915556 L27.2676213,27.2682222 Z M7.1185678,9.90933333 C5.59725559,9.90933333 4.36593936,8.67577778 4.36593936,7.15666667 C4.36593936,5.63866667 5.59725559,4.40555556 7.1185678,4.40555556 C8.63588006,4.40555556 9.86897404,5.63866667 9.86897404,7.15666667 C9.86897404,8.67577778 8.63588006,9.90933333 7.1185678,9.90933333 Z M4.74437855,27.2682222 L9.49075707,27.2682222 L9.49075707,11.9968889 L4.74437855,11.9968889 L4.74437855,27.2682222 Z M29.6313662,0 L2.36196719,0 C1.05887418,0 0,1.03288889 0,2.30644444 L0,29.6908889 C0,30.9655556 1.05887418,32 2.36196719,32 L29.6313662,32 C30.9366814,32 32,30.9655556 32,29.6908889 L32,2.30644444 C32,1.03288889 30.9366814,0 29.6313662,0 Z" id="Fill-1" fill="#000000" mask="url(#mask-2)"></path>
            </g>
        </g>
    </g>
</svg>