<?xml version="1.0" encoding="UTF-8"?>
<svg width="394px" height="394px" viewBox="0 0 394 394" version="1.1" xmlns="http://www.w3.org/2000/svg" xmlns:xlink="http://www.w3.org/1999/xlink">
    <!-- Generator: Sketch 51 (57462) - http://www.bohemiancoding.com/sketch -->
    <title>Group 106</title>
    <desc>Created with Sketch.</desc>
    <defs>
        <polygon id="path-1" points="0 0 394 0 394 393.9998 0 393.9998"></polygon>
    </defs>
    <g id="Site" stroke="none" stroke-width="1" fill="none" fill-rule="evenodd">
        <g id="Home-(Desktop)-Copy-7" transform="translate(-474.000000, -227.000000)">
            <g id="Group-106" transform="translate(474.000000, 227.000000)">
                <g id="Group-3">
                    <mask id="mask-2" fill="white">
                        <use xlink:href="#path-1"></use>
                    </mask>
                    <g id="Clip-2"></g>
                    <path d="M394,196.9998 C394,305.7998 305.8,393.9998 197,393.9998 C88.2,393.9998 0,305.7998 0,196.9998 C0,88.1998 88.2,-0.0002 197,-0.0002 C305.8,-0.0002 394,88.1998 394,196.9998" id="Fill-1" fill="#FFF67E" mask="url(#mask-2)"></path>
                </g>
                <polygon id="Fill-4" fill="#D3C229" points="59.3262 103.4632 62.6902 99.1082 76.9462 99.0542 68.0422 92.1772 71.6112 87.5572 88.4552 100.5672 85.2962 104.6572 70.4982 104.7162 79.7392 111.8532 76.1702 116.4732"></polygon>
                <polygon id="Fill-6" fill="#D3C229" points="75.8296 83.0603 88.1576 71.1873 91.6366 74.8003 83.5136 82.6243 85.7486 84.9453 93.1056 77.8593 96.3316 81.2093 88.9756 88.2953 91.3156 90.7263 99.5486 82.7973 103.0286 86.4103 90.5906 98.3873"></polygon>
                <polygon id="Fill-8" fill="#D3C229" points="91.3984 67.6888 96.5904 64.2388 106.4974 72.4438 103.0664 59.8628 107.2964 57.0518 117.5664 65.0888 113.8404 52.7768 118.9314 49.3948 124.8704 71.1898 120.5894 74.0348 110.2354 66.1998 113.4714 78.7638 109.1904 81.6078"></polygon>
                <path d="M137.1377,61.2571 L138.8757,56.4451 C141.4207,57.2961 143.9237,57.3201 146.2367,56.4751 C147.7217,55.9321 148.3337,55.1261 148.0207,54.2691 L147.9997,54.2121 C147.6977,53.3831 146.8737,53.1671 143.9297,53.5291 C139.3197,54.1131 135.5957,54.1141 134.0937,50.0011 L134.0727,49.9441 C132.7157,46.2301 134.6767,42.4701 139.4757,40.7171 C142.8747,39.4751 145.8657,39.4181 148.6727,40.3671 L147.3317,45.2931 C145.0337,44.6751 142.7837,44.7211 141.0127,45.3681 C139.6707,45.8591 139.2217,46.6701 139.4827,47.3841 L139.5037,47.4411 C139.8377,48.3551 140.6697,48.5051 143.6697,48.1201 C148.6347,47.4401 152.0337,47.8821 153.4007,51.6241 L153.4217,51.6801 C154.9137,55.7651 152.5737,59.3731 147.7177,61.1471 C144.1757,62.4411 140.3977,62.5591 137.1377,61.2571" id="Fill-10" fill="#D3C229"></path>
                <polygon id="Fill-12" fill="#D3C229" points="152.8433 36.7791 158.5893 35.3091 163.8653 55.9341 158.1203 57.4041"></polygon>
                <polygon id="Fill-14" fill="#D3C229" points="169.8701 38.2869 163.5541 39.2419 162.7811 34.1289 181.2471 31.3369 182.0201 36.4499 175.7041 37.4049 178.1151 53.3449 172.2801 54.2269"></polygon>
                <polygon id="Fill-16" fill="#D3C229" points="186.0054 31.0242 203.1274 30.7492 203.2074 35.7672 191.9244 35.9482 191.9764 39.1712 202.1944 39.0072 202.2694 43.6602 192.0514 43.8242 192.1054 47.2002 203.5404 47.0172 203.6214 52.0342 186.3474 52.3122"></polygon>
                <path d="M215.1973,42.3089 L215.2083,42.2489 C216.3193,36.1449 221.8883,32.2129 228.2323,33.3679 C232.5103,34.1459 234.9363,36.4429 236.3233,39.3539 L231.3403,41.9399 C230.4153,40.2259 229.2133,39.0179 227.2083,38.6529 C224.2753,38.1189 221.7593,40.2259 221.2033,43.2789 L221.1923,43.3389 C220.6203,46.4799 222.2383,49.3099 225.1713,49.8439 C227.3543,50.2419 228.8273,49.4579 230.3613,48.1609 L234.1633,52.0679 C231.6933,54.4319 228.6653,55.9519 224.0273,55.1069 C218.0423,54.0179 214.0583,48.5629 215.1973,42.3089" id="Fill-18" fill="#D3C229"></path>
                <path d="M253.2715,51.9788 L253.2925,51.9218 C254.3025,49.0208 253.0865,45.7638 250.0145,44.6918 C246.9705,43.6308 244.0715,45.3898 243.0595,48.2908 L243.0405,48.3478 C242.0295,51.2488 243.2445,54.5058 246.2885,55.5668 C249.3615,56.6388 252.2605,54.8788 253.2715,51.9788 M237.3045,46.4138 L237.3255,46.3558 C239.3365,40.5838 245.6215,37.5248 251.8245,39.6868 C258.0265,41.8488 261.0095,48.0738 258.9985,53.8458 L258.9775,53.9038 C256.9655,59.6758 250.6815,62.7348 244.4795,60.5728 C238.2765,58.4108 235.2925,52.1858 237.3045,46.4138" id="Fill-20" fill="#D3C229"></path>
                <polygon id="Fill-22" fill="#D3C229" points="267.8613 46.2776 273.3073 49.3116 273.7323 58.9826 282.1793 54.2556 287.6263 57.2896 277.2653 75.8856 272.1383 73.0286 278.0883 62.3496 269.2773 66.9796 269.1713 66.9196 268.4683 57.0596 262.5483 67.6856 257.5013 64.8736"></polygon>
                <polygon id="Fill-24" fill="#D3C229" points="292.2598 60.8518 297.0538 64.3418 284.5248 81.5488 279.7308 78.0588"></polygon>
                <polygon id="Fill-26" fill="#D3C229" points="301.7334 67.6463 305.7934 71.3633 304.6544 85.5783 312.2534 77.2783 316.5594 81.2223 302.1824 96.9233 298.3704 93.4323 299.5494 78.6773 291.6634 87.2913 287.3564 83.3473"></polygon>
                <path d="M312.0303,91.9529 L312.0783,91.9149 C316.9273,88.0489 323.7633,88.8209 327.8763,93.9789 C330.2073,96.9039 330.9523,99.6919 330.8333,102.6639 L325.4163,102.5499 C325.4673,100.5659 325.0903,98.9219 323.7823,97.2819 C321.8683,94.8809 318.3693,94.6369 315.8253,96.6649 L315.7783,96.7029 C313.0923,98.8449 312.6633,102.2579 314.7663,104.8959 C315.6573,106.0139 316.5773,106.6799 317.5793,107.0099 L319.5993,105.3989 L316.9843,102.1179 L320.3593,99.4269 L326.4623,107.0819 L318.9733,113.0519 C316.1213,112.4479 313.0513,110.8899 310.6443,107.8709 C306.5133,102.6889 306.9903,95.9709 312.0303,91.9529" id="Fill-28" fill="#D3C229"></path>
                <path d="M88.0283,172.6541 C89.5703,181.4281 86.1223,191.4211 88.7133,206.1541 L89.2093,206.0671 C93.5733,187.2091 99.8363,176.7221 97.6833,164.4721 C107.8633,162.6821 110.0493,164.4311 110.7613,168.4871 C112.0863,176.0191 107.7793,187.4431 110.3993,202.3411 L110.8953,202.2541 C112.9393,188.1561 122.1533,169.2151 120.5673,160.1931 C130.7483,158.4031 133.4053,160.4101 134.1623,164.7141 C135.7483,173.7371 122.8683,199.9791 121.2903,216.7251 C111.5913,218.3451 106.0193,214.8011 103.5063,200.9931 L103.0093,201.0801 C100.2993,207.0181 99.4073,215.5381 98.9413,220.6541 C84.6903,223.0741 79.9583,208.2901 77.2513,192.8941 C75.7233,184.2041 74.6723,176.2821 74.4923,168.4631 C84.6733,166.6741 87.3443,168.7631 88.0283,172.6541" id="Fill-30" fill="#FFFFFF"></path>
                <path d="M145.8887,185.2664 C143.9247,189.6214 143.1017,196.5934 143.9747,201.5594 C144.2217,202.9664 144.5377,204.2764 145.0727,205.3764 C150.9907,201.1794 155.7457,187.4584 154.1307,178.2704 C153.9847,177.4434 153.8107,176.4504 153.5427,175.8994 C152.2917,176.5464 149.9607,181.7344 149.5397,185.6484 C148.2987,185.8664 146.8187,185.7004 145.8887,185.2664 M144.0467,172.3634 C145.1967,171.1374 146.9987,170.2234 149.1507,169.8454 C156.4347,168.5644 164.8687,173.8234 166.3967,182.5144 C168.6807,195.5094 160.2007,209.8854 151.3437,211.4424 C148.3647,211.9664 144.3957,211.7244 141.3747,209.0994 C136.7847,208.7114 133.1407,204.4884 132.0927,198.5284 C130.0127,186.6924 136.4567,173.3574 142.0847,172.3674 C142.7477,172.2504 143.3417,172.2314 144.0467,172.3634" id="Fill-32" fill="#FFFFFF"></path>
                <path d="M195.7993,183.8303 C192.8203,184.3543 188.7643,183.6163 186.0923,181.5263 C183.5603,190.4183 180.6423,201.0013 181.5443,206.1333 C171.6123,207.8793 168.6433,206.5233 168.0323,203.0473 C166.9113,196.6743 176.5113,174.5923 174.9403,165.6523 C185.2043,163.8483 187.8413,165.2623 188.3943,168.4073 C188.7433,170.3933 187.9773,174.2833 186.8153,178.8393 C190.4003,176.4163 193.1983,170.9763 191.9173,163.6913 C200.1953,162.2373 203.7433,163.4903 204.5293,167.9603 C205.7513,174.9133 200.7653,182.9573 195.7993,183.8303" id="Fill-34" fill="#FFFFFF"></path>
                <path d="M228.291,198.2566 C225.228,198.7956 219.112,194.5806 217.817,187.2136 C217.715,186.6336 217.613,186.0536 217.594,185.4606 L217.083,185.4646 C216.038,190.6826 215.698,196.0326 216.396,200.0066 C207.871,201.5056 203.666,200.8796 202.895,196.4926 C201.105,186.3116 214.624,155.9456 212.528,144.0266 C221.054,142.5276 225.095,143.1826 225.866,147.5696 C226.71,152.3706 223.924,162.2476 220.783,171.0766 C227.629,168.7636 230.623,162.0076 230.427,155.5566 C238.072,154.3836 242.112,155.0386 242.854,159.2606 C244.294,167.4546 237.668,175.8726 229.97,177.2266 C226.742,177.7936 222.994,177.3436 220.166,176.3046 C220.014,177.8666 220.168,179.7176 220.46,181.3726 C221.056,184.7666 222.3,187.9606 222.904,188.9646 C224.603,187.4706 226.277,182.9096 226.249,179.8426 C233.728,178.6986 237.632,179.5486 238.301,183.3556 C239.262,188.8186 234.086,197.2376 228.291,198.2566" id="Fill-36" fill="#FFFFFF"></path>
                <path d="M268.0469,131.1946 C272.1849,130.4666 276.0789,133.1956 276.8049,137.3346 C277.5189,141.3906 274.7759,145.2006 270.6359,145.9286 C266.5809,146.6406 262.7849,143.9806 262.0729,139.9246 C261.3449,135.7866 263.9909,131.9076 268.0469,131.1946 M268.6309,190.8236 C267.5699,191.0956 266.6589,191.2556 265.7489,191.4156 C258.5469,192.6816 255.7009,191.0486 255.1179,187.7376 C253.9979,181.3646 263.5839,159.1996 262.0269,150.3436 C263.8039,149.7756 265.3619,149.4156 266.7689,149.1686 C272.2319,148.2076 274.8699,149.6216 275.4819,153.0976 C276.5279,159.0576 267.1469,182.3806 268.6309,190.8236" id="Fill-38" fill="#FFFFFF"></path>
                <path d="M302.769,142.8396 C306.079,142.2576 313.52,147.6906 314.32,152.2426 C315.514,159.0306 306.289,173.5366 308.107,183.8836 C298.174,185.6306 295.274,184.1776 294.663,180.7006 C293.586,174.5756 300.27,160.1746 301.915,152.5466 C294.383,153.8706 286.198,178.1786 287.828,187.4486 C277.895,189.1946 274.897,187.6736 274.286,184.1976 C273.238,178.2376 282.534,159.2816 280.395,147.1136 C288.011,145.7756 292.821,145.9536 293.505,149.8436 C293.752,151.2516 293.614,152.8966 293.039,154.9606 L293.536,154.8736 C295.297,147.9076 298.795,143.5376 302.769,142.8396" id="Fill-40" fill="#FFFFFF"></path>
                <path d="M69.8403,251.7278 C71.0863,252.0208 71.9233,252.8978 72.1413,254.1398 C72.3593,255.3808 71.8773,257.0018 70.6633,258.8358 L70.9943,258.7778 C77.3313,253.5678 81.1433,245.6448 81.1413008,234.4668 L73.2533,236.1948 C72.8903,240.4398 71.4603,245.8968 69.8403,251.7278 M50.0163,280.2148 C48.3433,270.6958 61.8383,240.6758 59.8593,229.4188 C63.0253,228.0098 67.0763,226.7848 69.9733,226.2758 C80.8993,224.3548 91.4893,229.7468 93.0173,238.4368 C95.1133,250.3568 87.2043,262.1578 75.2843,264.2528 C72.4703,264.7478 69.2623,264.4588 66.4493,263.5028 C64.3363,271.3828 62.7003,278.5818 63.6603,284.0458 C53.4803,285.8348 50.7153,284.1878 50.0163,280.2148" id="Fill-42" fill="#FFFFFF"></path>
                <path d="M117.8999,254.7136 C114.9209,255.2366 110.8649,254.4996 108.1939,252.4096 C105.6619,261.3016 102.7439,271.8846 103.6459,277.0156 C93.7129,278.7626 90.7439,277.4066 90.1329,273.9306 C89.0129,267.5576 98.6129,245.4756 97.0409,236.5356 C107.3049,234.7316 109.9429,236.1446 110.4959,239.2906 C110.8449,241.2766 110.0779,245.1656 108.9159,249.7216 C112.5009,247.2996 115.2989,241.8596 114.0189,234.5746 C122.2959,233.1196 125.8439,234.3736 126.6299,238.8436 C127.8519,245.7956 122.8659,253.8396 117.8999,254.7136" id="Fill-44" fill="#FFFFFF"></path>
                <path d="M141.5503,243.218 C139.5853,247.573 138.7633,254.545 139.6363,259.511 C139.8833,260.918 140.1983,262.228 140.7343,263.329 C146.6513,259.132 151.4073,245.41 149.7923,236.222 C149.6463,235.395 149.4723,234.402 149.2043,233.851 C147.9533,234.498 145.6223,239.686 145.2013,243.6 C143.9603,243.818 142.4793,243.652 141.5503,243.218 M139.7083,230.315 C140.8583,229.089 142.6603,228.175 144.8123,227.797 C152.0963,226.516 160.5293,231.775 162.0573,240.466 C164.3423,253.461 155.8623,267.837 147.0053,269.394 C144.0253,269.918 140.0583,269.676 137.0363,267.051 C132.4463,266.663 128.8013,262.44 127.7543,256.481 C125.6733,244.644 132.1183,231.309 137.7463,230.319 C138.4083,230.202 139.0033,230.183 139.7083,230.315" id="Fill-46" fill="#FFFFFF"></path>
                <path d="M177.6846,254.0173 C184.5556,251.3583 187.8326,234.5693 187.0476,230.1003 C181.1706,231.1333 177.3976,245.1073 177.6846,254.0173 M178.5996,262.1333 C175.5366,262.6723 167.0936,257.8413 165.6086,249.3983 C163.8486,239.3833 169.9686,223.7153 177.1696,222.4503 C179.4866,222.0423 183.2546,223.0863 186.1746,225.1333 L185.4466,220.9953 C195.3936,219.3313 198.6776,223.4473 199.6816,229.1583 C201.3836,238.8433 200.2996,252.0893 195.1886,264.7633 C191.2006,274.5953 185.8076,280.3213 179.5996,281.4133 C176.3716,281.9803 173.4796,281.5503 170.9746,279.4313 C164.7076,280.1913 161.0586,276.9073 160.2286,272.1893 C159.5886,268.5473 160.6826,264.0883 163.4646,260.0153 C169.8086,260.1803 173.7116,262.4813 174.1476,264.9633 C174.6426,267.7783 173.2816,271.6863 172.3256,274.4993 C176.3926,271.9083 181.8596,265.1443 184.2896,255.6713 L183.7926,255.7593 C182.6616,259.0303 180.6686,261.7693 178.5996,262.1333" id="Fill-48" fill="#FFFFFF"></path>
                <path d="M229.3955,235.1131 C226.4155,235.6371 222.3605,234.9001 219.6885,232.8091 C217.1565,241.7021 214.2375,252.2841 215.1405,257.4161 C205.2075,259.1621 202.2395,257.8071 201.6275,254.3301 C200.5075,247.9571 210.1065,225.8751 208.5365,216.9361 C218.7995,215.1311 221.4375,216.5451 221.9905,219.6901 C222.3395,221.6771 221.5725,225.5661 220.4115,230.1221 C223.9955,227.7001 226.7945,222.2591 225.5135,214.9751 C233.7905,213.5201 237.3385,214.7741 238.1245,219.2431 C239.3475,226.1961 234.3615,234.2401 229.3955,235.1131" id="Fill-50" fill="#FFFFFF"></path>
                <path d="M253.0122,224.3064 C253.3582,224.3304 253.6892,224.2724 254.0202,224.2144 C258.2422,223.4724 261.6232,218.4404 261.0122,214.9644 C260.9402,214.5504 260.7842,214.1514 260.6292,213.7514 C257.0192,216.5194 254.5242,220.2854 253.0122,224.3064 M251.7482,228.2834 C250.8312,232.2844 250.6872,236.3204 251.2832,239.7134 C251.5312,241.1204 251.9292,242.4164 252.3812,243.5314 C255.2212,241.2404 256.6362,237.1514 256.2692,233.1194 C264.5462,231.6654 268.3172,233.2204 268.9142,236.6144 C269.8462,241.9114 265.1142,248.9724 259.1552,250.0204 C250.6292,251.5194 240.9382,246.3964 238.9602,235.1394 C236.8652,223.2204 244.9692,210.1054 256.8052,208.0234 C265.9102,206.4234 272.3392,209.9864 273.3732,215.8634 C274.4792,222.1544 270.1622,227.6914 263.9542,228.7824 C259.8982,229.4954 255.2002,229.4684 251.7482,228.2834" id="Fill-52" fill="#FFFFFF"></path>
                <path d="M298.4067,218.5442 C296.4207,218.8932 294.1517,218.6092 291.5047,217.6242 C292.8057,214.8362 293.2567,211.0872 292.7607,208.2732 C292.6457,207.6102 292.5287,206.9482 292.2617,206.3982 C289.4947,207.6522 288.1057,211.3952 288.6287,214.3752 C289.6777,220.3352 298.7057,222.6722 300.2347,231.3642 C301.4857,238.4822 297.3987,243.3812 290.6937,244.5612 C288.7897,244.8952 286.5787,244.9422 284.2137,244.5902 C283.5657,244.7902 283.0017,244.9742 282.4217,245.0762 C276.5447,246.1092 272.1217,242.7912 271.1907,237.4942 C270.3897,232.9412 272.6117,229.5642 276.7507,228.8362 C278.6547,228.5022 280.9907,228.6882 283.6387,229.6732 C282.8047,232.2092 282.5407,235.0722 282.9477,237.3892 C283.2097,238.8792 283.7877,240.2282 284.6107,241.0222 C287.1227,239.3002 287.7187,236.3792 287.2247,233.5652 C286.1477,227.4402 277.2107,224.6592 275.8437,216.8792 C274.5917,209.7602 279.2107,203.9992 285.9157,202.8202 C287.3227,202.5732 288.7737,202.5742 290.3357,202.7262 C290.8177,202.5562 291.3147,202.4682 291.7287,202.3962 C297.5227,201.3772 302.9737,203.7472 303.9627,209.3752 C304.8367,214.3422 302.5457,217.8162 298.4067,218.5442" id="Fill-54" fill="#FFFFFF"></path>
                <path d="M329.2974,213.114 C327.3114,213.463 325.0424,213.179 322.3944,212.195 C323.6964,209.406 324.1474,205.657 323.6514,202.843 C323.5354,202.181 323.4194,201.518 323.1524,200.968 C320.3854,202.222 318.9954,205.965 319.5194,208.945 C320.5674,214.905 329.5964,217.242 331.1254,225.934 C332.3764,233.052 328.2884,237.952 321.5844,239.131 C319.6804,239.465 317.4694,239.513 315.1044,239.16 C314.4564,239.36 313.8914,239.545 313.3124,239.646 C307.4344,240.679 303.0124,237.362 302.0814,232.064 C301.2804,227.511 303.5024,224.134 307.6414,223.406 C309.5454,223.072 311.8814,223.258 314.5294,224.243 C313.6954,226.78 313.4304,229.642 313.8374,231.96 C314.1004,233.449 314.6784,234.798 315.5004,235.593 C318.0134,233.871 318.6094,230.95 318.1154,228.135 C317.0374,222.01 308.1014,219.23 306.7344,211.449 C305.4824,204.331 310.1014,198.569 316.8054,197.391 C318.2134,197.143 319.6644,197.144 321.2264,197.296 C321.7084,197.126 322.2054,197.039 322.6194,196.966 C328.4124,195.947 333.8644,198.317 334.8534,203.946 C335.7264,208.912 333.4364,212.386 329.2974,213.114" id="Fill-56" fill="#FFFFFF"></path>
                <path d="M89.6514,170.784 C91.2884,179.541 87.9474,189.57 90.6964,204.275 L91.1924,204.182 C95.3534,185.279 101.5024,174.724 99.2174,162.498 C109.3784,160.599 111.5824,162.325 112.3384,166.372 C113.7434,173.89 109.5604,185.359 112.3404,200.229 L112.8364,200.137 C114.7284,186.017 123.7374,166.977 122.0544,157.973 C132.2154,156.074 134.8934,158.053 135.6964,162.348 C137.3804,171.353 124.7834,197.732 123.3854,214.494 C113.7044,216.219 108.0944,212.736 105.4334,198.955 L104.9374,199.048 C102.2914,205.014 101.4914,213.543 101.0804,218.664 C86.8564,221.237 81.9644,206.505 79.0924,191.139 C77.4714,182.466 76.3354,174.555 76.0704,166.739 C86.2324,164.84 88.9254,166.901 89.6514,170.784" id="Fill-58" fill="#000000"></path>
                <path d="M147.644,182.7727 C145.727,187.1487 144.979,194.1287 145.905,199.0857 C146.168,200.4897 146.498,201.7957 147.044,202.8907 C152.916,198.6297 157.524,184.8587 155.81,175.6887 C155.656,174.8627 155.471,173.8717 155.197,173.3237 C153.953,173.9837 151.678,179.1967 151.299,183.1157 C150.06,183.3467 148.578,183.1967 147.644,182.7727 M145.664,169.8907 C146.8,168.6517 148.592,167.7187 150.74,167.3167 C158.01,165.9587 166.499,171.1257 168.121,179.7997 C170.545,192.7697 162.22,207.2357 153.381,208.8887 C150.407,209.4437 146.436,209.2457 143.387,206.6527 C138.792,206.3147 135.103,202.1307 133.992,196.1827 C131.784,184.3697 138.084,170.9657 143.702,169.9157 C144.363,169.7917 144.956,169.7667 145.664,169.8907" id="Fill-60" fill="#000000"></path>
                <path d="M197.5361,180.7996 C194.5621,181.3556 190.4991,180.6616 187.8061,178.5996 C185.3691,187.5196 182.5651,198.1326 183.5221,203.2546 C173.6091,205.1076 170.6261,203.7836 169.9771,200.3146 C168.7881,193.9536 178.1501,171.7696 176.4821,162.8476 C186.7261,160.9326 189.3791,162.3176 189.9661,165.4566 C190.3361,167.4396 189.6121,171.3366 188.4991,175.9046 C192.0571,173.4446 194.7971,167.9736 193.4381,160.7036 C201.6991,159.1596 205.2611,160.3746 206.0951,164.8366 C207.3911,171.7756 202.4931,179.8726 197.5361,180.7996" id="Fill-62" fill="#000000"></path>
                <path d="M230.1816,194.8753 C227.1246,195.4463 220.9636,191.2973 219.5886,183.9453 C219.4816,183.3673 219.3726,182.7883 219.3476,182.1943 L218.8356,182.2053 C217.8476,187.4343 217.5656,192.7873 218.3066,196.7523 C209.7976,198.3433 205.5856,197.7633 204.7676,193.3843 C202.8686,183.2233 216.0596,152.7143 213.8356,140.8183 C222.3446,139.2283 226.3926,139.8393 227.2106,144.2173 C228.1066,149.0093 225.4266,158.9153 222.3806,167.7773 C229.2026,165.3913 232.1226,158.6033 231.8576,152.1553 C239.4896,150.8993 243.5356,151.5113 244.3236,155.7243 C245.8526,163.9023 239.3176,172.3923 231.6336,173.8283 C228.4116,174.4303 224.6596,174.0203 221.8206,173.0123 C221.6856,174.5763 221.8596,176.4243 222.1686,178.0763 C222.8016,181.4633 224.0796,184.6443 224.6946,185.6413 C226.3776,184.1293 228.0016,179.5513 227.9416,176.4843 C235.4076,175.2603 239.3206,176.0673 240.0306,179.8673 C241.0496,185.3203 235.9646,193.7943 230.1816,194.8753" id="Fill-64" fill="#000000"></path>
                <path d="M269.2129,127.3889 C273.3429,126.6169 277.2659,129.3039 278.0369,133.4339 C278.7939,137.4819 276.0919,141.3219 271.9609,142.0939 C267.9129,142.8499 264.0889,140.2309 263.3329,136.1829 C262.5609,132.0529 265.1649,128.1459 269.2129,127.3889 M270.4399,187.0079 C269.3809,187.2909 268.4719,187.4609 267.5639,187.6309 C260.3759,188.9749 257.5119,187.3729 256.8939,184.0679 C255.7049,177.7069 265.0519,155.4409 263.3999,146.6009 C265.1699,146.0139 266.7249,145.6379 268.1289,145.3749 C273.5809,144.3559 276.2339,145.7409 276.8829,149.2109 C277.9939,155.1589 268.8639,178.5819 270.4399,187.0079" id="Fill-66" fill="#000000"></path>
                <path d="M304.0586,138.6594 C307.3626,138.0414 314.8616,143.3944 315.7096,147.9374 C316.9766,154.7124 307.9086,169.3174 309.8376,179.6434 C299.9246,181.4964 297.0086,180.0754 296.3606,176.6054 C295.2176,170.4924 301.7456,156.0204 303.3096,148.3744 C295.7916,149.7804 287.8696,174.1744 289.5986,183.4274 C279.6856,185.2804 276.6706,183.7914 276.0226,180.3224 C274.9106,174.3734 284.0016,155.3184 281.7326,143.1744 C289.3326,141.7534 294.1446,141.8804 294.8706,145.7634 C295.1326,147.1674 295.0126,148.8144 294.4586,150.8844 L294.9546,150.7914 C296.6416,143.8074 300.0926,139.4004 304.0586,138.6594" id="Fill-68" fill="#000000"></path>
                <path d="M72.3154,250.0491 C73.5644,250.3291 74.4104,251.1961 74.6424,252.4361 C74.8744,253.6741 74.4084,255.3001 73.2144,257.1481 L73.5454,257.0871 C79.8264,251.8091 83.5524,243.8451 83.4304,232.6681 L75.5614,234.4801 C75.2434,238.7291 73.8724,244.2011 72.3154,250.0491 M52.7994,278.7481 C51.0244,269.2481 64.1954,239.0841 62.0954,227.8491 C65.2454,226.4051 69.2834,225.1371 72.1744,224.5971 C83.0794,222.5591 93.7274,227.8361 95.3484,236.5101 C97.5724,248.4061 89.7904,260.2911 77.8944,262.5151 C75.0854,263.0401 71.8744,262.7851 69.0514,261.8601 C67.0234,269.7621 65.4644,276.9791 66.4844,282.4311 C56.3234,284.3311 53.5414,282.7131 52.7994,278.7481" id="Fill-70" fill="#000000"></path>
                <path d="M120.4048,252.5173 C117.4308,253.0733 113.3678,252.3793 110.6748,250.3173 C108.2378,259.2373 105.4338,269.8503 106.3908,274.9723 C96.4778,276.8253 93.4948,275.5013 92.8458,272.0323 C91.6568,265.6713 101.0188,243.4873 99.3508,234.5653 C109.5948,232.6503 112.2478,234.0353 112.8348,237.1743 C113.2048,239.1573 112.4808,243.0543 111.3678,247.6223 C114.9258,245.1623 117.6658,239.6913 116.3068,232.4213 C124.5678,230.8773 128.1298,232.0923 128.9638,236.5543 C130.2598,243.4933 125.3618,251.5903 120.4048,252.5173" id="Fill-72" fill="#000000"></path>
                <path d="M143.9297,240.7678 C142.0117,245.1438 141.2647,252.1238 142.1917,257.0808 C142.4537,258.4848 142.7837,259.7908 143.3297,260.8858 C149.2017,256.6248 153.8097,242.8538 152.0957,233.6838 C151.9417,232.8578 151.7567,231.8668 151.4827,231.3188 C150.2387,231.9788 147.9637,237.1918 147.5847,241.1108 C146.3457,241.3418 144.8637,241.1918 143.9297,240.7678 M141.9497,227.8858 C143.0857,226.6468 144.8777,225.7138 147.0257,225.3118 C154.2957,223.9538 162.7847,229.1208 164.4067,237.7948 C166.8307,250.7648 158.5057,265.2308 149.6667,266.8838 C146.6927,267.4388 142.7227,267.2408 139.6727,264.6478 C135.0777,264.3098 131.3887,260.1258 130.2777,254.1778 C128.0697,242.3648 134.3697,228.9608 139.9877,227.9108 C140.6487,227.7868 141.2417,227.7618 141.9497,227.8858" id="Fill-74" fill="#000000"></path>
                <path d="M180.1782,251.1775 C187.0202,248.4455 190.1162,231.6215 189.2832,227.1605 C183.4172,228.2575 179.7962,242.2715 180.1782,251.1775 M181.1802,259.2825 C178.1232,259.8545 169.6292,255.1155 168.0532,246.6895 C166.1852,236.6935 172.1362,220.9605 179.3232,219.6175 C181.6362,219.1855 185.4152,220.1885 188.3562,222.2035 L187.5842,218.0735 C197.5132,216.3025 200.8412,220.3835 201.9062,226.0835 C203.7132,235.7485 202.7712,249.0065 197.7972,261.7345 C193.9152,271.6085 188.5842,277.3925 182.3882,278.5515 C179.1662,279.1535 176.2702,278.7545 173.7412,276.6615 C167.4842,277.4895 163.8002,274.2455 162.9192,269.5365 C162.2402,265.9015 163.2852,261.4315 166.0242,257.3285 C172.3682,257.4255 176.2962,259.6835 176.7602,262.1615 C177.2842,264.9705 175.9662,268.8935 175.0402,271.7165 C179.0792,269.0805 184.4722,262.2585 186.8012,252.7605 L186.3052,252.8535 C185.2092,256.1365 183.2452,258.8975 181.1802,259.2825" id="Fill-76" fill="#000000"></path>
                <path d="M231.6826,231.7175 C228.7076,232.2735 224.6456,231.5795 221.9526,229.5185 C219.5156,238.4375 216.7106,249.0505 217.6686,254.1725 C207.7546,256.0255 204.7726,254.7025 204.1226,251.2325 C202.9346,244.8715 212.2956,222.6875 210.6286,213.7655 C220.8716,211.8505 223.5256,213.2365 224.1126,216.3755 C224.4826,218.3585 223.7576,222.2555 222.6456,226.8235 C226.2036,224.3635 228.9436,218.8925 227.5836,211.6225 C235.8446,210.0785 239.4066,211.2935 240.2406,215.7545 C241.5376,222.6935 236.6386,230.7915 231.6826,231.7175" id="Fill-78" fill="#000000"></path>
                <path d="M255.1816,220.657 C255.5286,220.678 255.8586,220.616 256.1886,220.554 C260.4026,219.767 263.7296,214.699 263.0806,211.229 C263.0036,210.816 262.8436,210.419 262.6846,210.021 C259.1046,212.827 256.6506,216.621 255.1816,220.657 M253.9606,224.647 C253.0866,228.658 252.9866,232.695 253.6196,236.082 C253.8816,237.487 254.2936,238.778 254.7576,239.888 C257.5736,237.566 258.9436,233.463 258.5336,229.435 C266.7936,227.891 270.5816,229.406 271.2156,232.793 C272.2036,238.08 267.5486,245.192 261.6006,246.303 C253.0916,247.894 243.3466,242.876 241.2466,231.641 C239.0236,219.745 246.9866,206.543 258.7996,204.335 C267.8866,202.636 274.3536,206.13 275.4506,211.995 C276.6236,218.274 272.3676,223.857 266.1706,225.015 C262.1226,225.772 257.4246,225.795 253.9606,224.647" id="Fill-80" fill="#000000"></path>
                <path d="M300.5117,214.4065 C298.5297,214.7775 296.2577,214.5175 293.5997,213.5615 C294.8707,210.7585 295.2817,207.0055 294.7557,204.1965 C294.6327,203.5355 294.5087,202.8745 294.2367,202.3275 C291.4837,203.6115 290.1337,207.3685 290.6897,210.3435 C291.8017,216.2915 300.8557,218.5315 302.4777,227.2055 C303.8047,234.3105 299.7707,239.2535 293.0787,240.5045 C291.1787,240.8595 288.9687,240.9305 286.5997,240.6045 C285.9537,240.8105 285.3917,241.0015 284.8137,241.1095 C278.9477,242.2055 274.4897,238.9355 273.5007,233.6485 C272.6517,229.1045 274.8367,225.7035 278.9677,224.9315 C280.8677,224.5765 283.2057,224.7375 285.8647,225.6945 C285.0577,228.2395 284.8237,231.1045 285.2557,233.4175 C285.5337,234.9045 286.1267,236.2465 286.9577,237.0315 C289.4517,235.2825 290.0167,232.3565 289.4917,229.5475 C288.3487,223.4345 279.3827,220.7495 277.9317,212.9845 C276.6037,205.8795 281.1597,200.0695 287.8517,198.8185 C289.2557,198.5555 290.7067,198.5415 292.2707,198.6765 C292.7507,198.5015 293.2467,198.4085 293.6597,198.3315 C299.4427,197.2505 304.9187,199.5615 305.9687,205.1785 C306.8957,210.1355 304.6427,213.6345 300.5117,214.4065" id="Fill-82" fill="#000000"></path>
                <path d="M331.3418,208.6443 C329.3598,209.0153 327.0878,208.7553 324.4298,207.7993 C325.7008,204.9963 326.1118,201.2433 325.5858,198.4343 C325.4628,197.7733 325.3388,197.1123 325.0668,196.5653 C322.3138,197.8493 320.9638,201.6063 321.5198,204.5813 C322.6318,210.5293 331.6858,212.7693 333.3078,221.4433 C334.6348,228.5483 330.6008,233.4913 323.9088,234.7423 C322.0088,235.0973 319.7988,235.1683 317.4298,234.8423 C316.7838,235.0483 316.2218,235.2393 315.6438,235.3473 C309.7778,236.4433 305.3198,233.1733 304.3308,227.8863 C303.4818,223.3423 305.6668,219.9413 309.7978,219.1693 C311.6978,218.8143 314.0358,218.9753 316.6948,219.9323 C315.8878,222.4773 315.6538,225.3423 316.0858,227.6553 C316.3638,229.1423 316.9568,230.4843 317.7878,231.2693 C320.2818,229.5213 320.8468,226.5943 320.3218,223.7853 C319.1788,217.6723 310.2128,214.9873 308.7618,207.2223 C307.4338,200.1183 311.9898,194.3073 318.6818,193.0563 C320.0858,192.7933 321.5368,192.7793 323.1008,192.9143 C323.5808,192.7393 324.0768,192.6463 324.4898,192.5693 C330.2728,191.4883 335.7488,193.7993 336.7988,199.4163 C337.7258,204.3733 335.4728,207.8723 331.3418,208.6443" id="Fill-84" fill="#000000"></path>
                <polygon id="Fill-86" fill="#D3C229" points="106.5698 317.8655 120.8048 327.3755 118.0178 331.5475 108.6368 325.2805 106.8468 327.9605 115.3418 333.6365 112.7578 337.5045 104.2618 331.8285 102.3868 334.6355 111.8938 340.9865 109.1068 345.1585 94.7458 335.5645"></polygon>
                <polygon id="Fill-88" fill="#D3C229" points="121.0518 327.7088 126.9888 330.5898 125.4578 344.8208 135.6888 334.8118 141.5168 337.6388 124.3878 353.1568 119.4628 350.7678"></polygon>
                <polygon id="Fill-90" fill="#D3C229" points="142.5034 337.8132 158.7824 343.1052 157.2314 347.8762 146.5034 344.3892 145.5074 347.4542 155.2234 350.6122 153.7854 355.0362 144.0694 351.8782 143.0264 355.0872 153.8984 358.6222 152.3474 363.3932 135.9234 358.0542"></polygon>
                <polygon id="Fill-92" fill="#D3C229" points="160.7705 343.6804 166.1915 344.6334 172.8705 357.2314 174.8185 346.1494 180.5695 347.1594 176.8845 368.1274 171.7925 367.2324 164.8575 354.1564 162.8365 365.6584 157.0855 364.6474"></polygon>
                <polygon id="Fill-94" fill="#D3C229" points="188.271 352.6682 181.888 352.4342 182.078 347.2672 200.74 347.9512 200.551 353.1182 194.168 352.8842 193.578 368.9942 187.681 368.7782"></polygon>
                <path d="M203.1025,359.8538 L201.9455,347.9618 L207.9065,347.3818 L209.0515,359.1528 C209.3495,362.2088 211.0345,363.5108 213.3945,363.2808 C215.7535,363.0518 217.1625,361.5098 216.8735,358.5438 L215.7125,346.6228 L221.6735,346.0418 L222.8165,357.7828 C223.4825,364.6208 219.8705,367.9968 213.8485,368.5828 C207.8275,369.1678 203.7485,366.4798 203.1025,359.8538" id="Fill-96" fill="#D3C229"></path>
                <path d="M238.4355,355.3386 L234.6895,350.0276 L233.7995,356.4766 L238.4355,355.3386 Z M230.3065,343.9036 L235.8285,342.5486 L249.7365,361.2046 L243.5945,362.7126 L241.1825,359.3906 L233.2105,361.3476 L232.6405,365.4016 L226.6175,366.8796 L230.3065,343.9036 Z" id="Fill-98" fill="#D3C229"></path>
                <polygon id="Fill-100" fill="#D3C229" points="245.5176 339.9353 251.0026 337.7623 256.9386 352.7483 266.5236 348.9513 268.4276 353.7573 253.3576 359.7273"></polygon>
                <polygon id="Fill-102" fill="#D3C229" points="261.9941 333.2298 267.1831 330.4238 274.8501 344.6008 283.9181 339.6968 286.3771 344.2438 272.1201 351.9538"></polygon>
                <polygon id="Fill-104" fill="#D3C229" points="286.9209 334.242 272.7289 327.804 278.2789 324.013 286.2699 327.948 285.5369 319.056 290.9869 315.335 291.7679 330.823 296.3129 337.478 291.4149 340.823"></polygon>
            </g>
        </g>
    </g>
</svg>