<?xml version="1.0" encoding="UTF-8"?>
<svg width="16px" height="16px" viewBox="0 0 16 16" version="1.1" xmlns="http://www.w3.org/2000/svg" xmlns:xlink="http://www.w3.org/1999/xlink">
    <!-- Generator: Sketch 52.6 (67491) - http://www.bohemiancoding.com/sketch -->
    <title>dribbble-logo</title>
    <desc>Created with Sketch.</desc>
    <g id="Site" stroke="none" stroke-width="1" fill="none" fill-rule="evenodd">
        <g id="Home-(Desktop)-Copy-5" transform="translate(-417.000000, -1555.000000)" fill="#3B71FF" fill-rule="nonzero">
            <g id="dribbble-logo" transform="translate(417.000000, 1555.000000)">
                <path d="M8,16 C3.58441558,16 0,12.4155844 0,8 C0,3.58441558 3.58441558,0 8,0 C12.4155844,0 16,3.58441558 16,8 C16,12.4155844 12.4155844,16 8,16 Z M14.7532468,9.09090909 C14.5194805,9.01298701 12.6233766,8.44155844 10.4675325,8.80519481 C11.3506494,11.2727273 11.7142857,13.2467532 11.7922078,13.6883117 C13.3766234,12.6233766 14.4415584,10.987013 14.7532468,9.09090909 Z M10.6753247,14.2857143 C10.5714286,13.6883117 10.1558442,11.6103896 9.22077922,9.09090909 C9.19480519,9.09090909 9.19480519,9.09090909 9.16883117,9.11688312 C5.2987013,10.4675325 3.92207792,13.1428571 3.79220779,13.4025974 C4.93506494,14.2857143 6.38961039,14.8311688 8,14.8311688 C8.93506494,14.8571429 9.84415584,14.6493506 10.6753247,14.2857143 Z M2.90909091,12.5714286 C3.06493506,12.3116883 4.93506494,9.19480519 8.49350649,8.07792208 C8.57142857,8.05194805 8.67532468,8.02597403 8.77922078,8 C8.5974026,7.61038961 8.41558442,7.22077922 8.20779221,6.85714286 C4.77922078,7.87012987 1.48051948,7.81818182 1.16883117,7.81818182 C1.16883117,7.8961039 1.16883117,7.94805195 1.16883117,8.02597403 C1.14285714,9.76623377 1.81818182,11.3766234 2.90909091,12.5714286 Z M1.2987013,6.62337662 C1.61038961,6.62337662 4.41558442,6.64935065 7.61038961,5.76623377 C6.49350649,3.74025974 5.24675325,2.05194805 5.06493506,1.79220779 C3.16883117,2.72727273 1.74025974,4.49350649 1.2987013,6.62337662 Z M6.38961039,1.37662338 C6.57142857,1.63636364 7.81818182,3.32467532 8.96103896,5.37662338 C11.4025974,4.46753247 12.4155844,3.06493506 12.5454545,2.88311688 C11.3506494,1.84415584 9.76623377,1.16883117 8.02597403,1.16883117 C7.42857143,1.16883117 6.90909091,1.24675325 6.38961039,1.37662338 Z M13.2987013,3.68831169 C13.1428571,3.8961039 12.025974,5.35064935 9.48051948,6.36363636 C9.63636364,6.7012987 9.79220779,7.03896104 9.94805195,7.35064935 C10,7.48051948 10.0519481,7.58441558 10.1038961,7.71428571 C12.3896104,7.42857143 14.6493506,7.8961039 14.8571429,7.94805195 C14.8311688,6.33766234 14.2337662,4.85714286 13.2987013,3.68831169 Z" id="Shape"></path>
            </g>
        </g>
    </g>
</svg>