<svg width="32" height="32" viewBox="0 0 32 32" fill="none" xmlns="http://www.w3.org/2000/svg">
<path fill-rule="evenodd" clip-rule="evenodd" d="M30 16C30 23.732 23.732 30 16 30C8.26801 30 2 23.732 2 16C2 8.26801 8.26801 2 16 2C23.732 2 30 8.26801 30 16ZM32 16C32 24.8366 24.8366 32 16 32C7.16344 32 0 24.8366 0 16C0 7.16344 7.16344 0 16 0C24.8366 0 32 7.16344 32 16ZM15.852 22.2479C15.788 21.9919 15.872 21.5479 16.104 20.9159L18 15.7439C18.232 15.0959 18.332 14.5559 18.3 14.1239C18.276 13.6919 18.136 13.3679 17.88 13.1519C17.632 12.9279 17.28 12.8159 16.824 12.8159C16.192 12.8159 15.612 12.9759 15.084 13.2959C14.556 13.6079 14.144 14.0319 13.848 14.5679C13.76 14.7439 13.712 14.8919 13.704 15.0119C13.704 15.1239 13.748 15.1999 13.836 15.2399C13.916 15.2719 13.996 15.2759 14.076 15.2519C14.156 15.2199 14.26 15.1479 14.388 15.0359C14.612 14.8039 14.8 14.6479 14.952 14.5679C15.112 14.4799 15.256 14.4359 15.384 14.4359C15.608 14.4359 15.748 14.5639 15.804 14.8199C15.868 15.0759 15.784 15.5239 15.552 16.1639L13.608 21.3839C13.392 21.9919 13.288 22.5119 13.296 22.9439C13.304 23.3679 13.432 23.6919 13.68 23.9159C13.936 24.1319 14.308 24.2399 14.796 24.2399C15.444 24.2399 16.032 24.0839 16.56 23.7719C17.096 23.4519 17.512 23.0279 17.808 22.4999C17.896 22.3319 17.94 22.1879 17.94 22.0679C17.948 21.9479 17.908 21.8679 17.82 21.8279C17.74 21.7879 17.656 21.7839 17.568 21.8159C17.488 21.8479 17.384 21.9199 17.256 22.0319C17.04 22.2559 16.852 22.4119 16.692 22.4999C16.54 22.5879 16.4 22.6319 16.272 22.6319C16.056 22.6319 15.916 22.5039 15.852 22.2479ZM16.548 10.1519C16.812 10.4239 17.196 10.5599 17.7 10.5599C18.1 10.5599 18.46 10.4799 18.78 10.3199C19.1 10.1599 19.356 9.94788 19.548 9.68388C19.748 9.41188 19.86 9.11588 19.884 8.79588C19.932 8.40388 19.832 8.07188 19.584 7.79988C19.344 7.51988 18.96 7.37988 18.432 7.37988C18.024 7.37988 17.66 7.46388 17.34 7.63188C17.02 7.79988 16.76 8.01988 16.56 8.29188C16.368 8.55588 16.256 8.84388 16.224 9.15588C16.184 9.54788 16.292 9.87988 16.548 10.1519Z" fill="black"/>
</svg>
