<svg width="24" height="24" viewBox="0 0 24 24" fill="none" xmlns="http://www.w3.org/2000/svg">
<path d="M18.375 6.75C18.9963 6.75 19.5 6.24632 19.5 5.625C19.5 5.00368 18.9963 4.5 18.375 4.5C17.7537 4.5 17.25 5.00368 17.25 5.625C17.25 6.24632 17.7537 6.75 18.375 6.75ZM6 0H18C21.3137 0 24 2.68629 24 6V18C24 21.3137 21.3137 24 18 24H6C2.68629 24 0 21.3137 0 18V6C0 2.68629 2.68629 0 6 0ZM12 18C8.68629 18 6 15.3137 6 12C6 8.68629 8.68629 6 12 6C15.3137 6 18 8.68629 18 12C18 15.3137 15.3137 18 12 18ZM12 15.75C14.0711 15.75 15.75 14.0711 15.75 12C15.75 9.92893 14.0711 8.25 12 8.25C9.92893 8.25 8.25 9.92893 8.25 12C8.25 14.0711 9.92893 15.75 12 15.75ZM6.75 2.25C4.26472 2.25 2.25 4.26472 2.25 6.75V17.25C2.25 19.7353 4.26472 21.75 6.75 21.75H17.25C19.7353 21.75 21.75 19.7353 21.75 17.25V6.75C21.75 4.26472 19.7353 2.25 17.25 2.25H6.75Z" fill="white"/>
</svg>
