<svg width="14" height="14" viewBox="0 0 14 14" fill="none" xmlns="http://www.w3.org/2000/svg">
<path d="M4.30595 7.483C4.30595 6.307 4.25297 5.278 4.2 4.445H6.9546L7.11351 5.768H7.16649C7.59027 5.131 8.59676 4.2 10.3449 4.2C12.4108 4.2 14 5.523 14 8.365V14H10.8216V8.708C10.8216 7.483 10.3449 6.65 9.23243 6.65C8.38487 6.65 7.85514 7.189 7.59027 7.777C7.48432 7.973 7.48432 8.267 7.48432 8.512V14H4.30595V7.483ZM0 14V4.2H2.8V14H0ZM2.8 1.39882C2.8 2.19149 2.26667 2.79765 1.37778 2.79765C0.533333 2.84427 0 2.19149 0 1.39882C0 0.606157 0.577778 0 1.42222 0C2.26667 0 2.8 0.606157 2.8 1.39882Z" fill="white"/>
</svg>
