<svg width="80" height="80" viewBox="0 0 80 80" fill="none" xmlns="http://www.w3.org/2000/svg">
<circle cx="40" cy="40" r="39.5" fill="#FF402D" stroke="url(#paint0_linear_1848_65)"/>
<path d="M38.3067 28.1481H49.4573L37.1094 40.496L39.5038 42.8904L51.8467 30.5475V41.6931H55.233V26.455C55.233 25.5199 54.4749 24.7618 53.5398 24.7618H38.3067V28.1481Z" fill="white"/>
<path d="M28.148 36.6137C28.148 35.6786 28.906 34.9206 29.8411 34.9206H34.9204V31.5343H29.8411C27.0358 31.5343 24.7617 33.8084 24.7617 36.6137V50.1587C24.7617 52.9639 27.0358 55.238 29.8411 55.238H43.3861C46.1904 55.238 48.4654 52.9661 48.4654 50.16V45.0793H45.0792V50.16C45.0792 51.0942 44.322 51.8518 43.3861 51.8518H29.8411C28.906 51.8518 28.148 51.0938 28.148 50.1587V36.6137Z" fill="white"/>
<defs>
<linearGradient id="paint0_linear_1848_65" x1="40" y1="0" x2="40" y2="80" gradientUnits="userSpaceOnUse">
<stop stop-color="white" stop-opacity="0.14"/>
<stop offset="1" stop-opacity="0.1"/>
</linearGradient>
</defs>
</svg>
