<?xml version="1.0" encoding="UTF-8"?>
<svg width="18px" height="18px" viewBox="0 0 18 18" version="1.1" xmlns="http://www.w3.org/2000/svg" xmlns:xlink="http://www.w3.org/1999/xlink">
    <!-- Generator: Sketch 52.6 (67491) - http://www.bohemiancoding.com/sketch -->
    <title>Group 3</title>
    <desc>Created with Sketch.</desc>
    <defs>
        <polygon id="path-1" points="0 0 17.9999 0 17.9999 17.9999 0 17.9999"></polygon>
    </defs>
    <g id="Symbols" stroke="none" stroke-width="1" fill="none" fill-rule="evenodd">
        <g id="Footer" transform="translate(-895.000000, -138.000000)">
            <g id="Group-3" transform="translate(895.000000, 138.000000)">
                <mask id="mask-2" fill="white">
                    <use xlink:href="#path-1"></use>
                </mask>
                <g id="Clip-2"></g>
                <path d="M15.5459,15.5449 L12.9239,15.5449 L12.9239,11.2749 C12.9239,10.2569 12.9039,8.9469 11.5589,8.9469 C10.1929,8.9469 9.9849,10.0559 9.9849,11.2009 L9.9849,15.5449 L7.3639,15.5449 L7.3639,6.7639 L9.8789,6.7639 L9.8789,7.9639 L9.9149,7.9639 C10.2659,7.2739 11.1219,6.5449 12.3989,6.5449 C15.0549,6.5449 15.5459,8.3639 15.5459,10.7289 L15.5459,15.5449 Z M4.0919,5.6059 C3.1859,5.6059 2.4549,4.8989 2.4549,4.0299 C2.4549,3.1609 3.1859,2.4549 4.0919,2.4549 C4.9949,2.4549 5.7279,3.1609 5.7279,4.0299 C5.7279,4.8989 4.9949,5.6059 4.0919,5.6059 Z M2.6789,15.5449 L5.5039,15.5449 L5.5039,6.8019 L2.6789,6.8019 L2.6789,15.5449 Z M16.6669,-0.0001 L1.3279,-0.0001 C0.5949,-0.0001 -0.0001,0.5809 -0.0001,1.2969 L-0.0001,16.7009 C-0.0001,17.4179 0.5949,17.9999 1.3279,17.9999 L16.6669,17.9999 C17.3999,17.9999 17.9999,17.4179 17.9999,16.7009 L17.9999,1.2969 C17.9999,0.5809 17.3999,-0.0001 16.6669,-0.0001 Z" id="Fill-1" fill="#000000" mask="url(#mask-2)"></path>
            </g>
        </g>
    </g>
</svg>