<?xml version="1.0" encoding="UTF-8"?>
<svg width="228px" height="241px" viewBox="0 0 228 241" version="1.1" xmlns="http://www.w3.org/2000/svg" xmlns:xlink="http://www.w3.org/1999/xlink">
    <!-- Generator: Sketch 52.6 (67491) - http://www.bohemiancoding.com/sketch -->
    <title>Group 34</title>
    <desc>Created with Sketch.</desc>
    <defs>
        <polygon id="path-1" points="0.764783286 0.747 30.5850441 0.747 30.5850441 18.7989516 0.764783286 18.7989516"></polygon>
    </defs>
    <g id="Site" stroke="none" stroke-width="1" fill="none" fill-rule="evenodd">
        <g id="Home-(Desktop)-Copy-5" transform="translate(-88.000000, -84.000000)">
            <g id="Group-34" transform="translate(88.000000, 83.000000)">
                <path d="M133.8627,73.7449 C132.2687,74.3029 130.8277,74.8069 129.4197,75.2999 C129.0887,78.1759 130.0307,81.2379 130.7837,83.9999 C132.5747,83.1579 133.8987,81.8019 135.3997,81.0949 C135.2177,78.4989 135.2187,76.1589 133.8627,73.7449 Z M183.7047,184.0949 C183.4137,184.5649 183.0067,185.0639 182.7677,185.6339 C181.7637,188.0219 180.8967,190.4719 179.8157,192.8229 C178.5027,195.6789 177.0127,198.4519 175.6317,201.2769 C175.4317,201.6829 175.4087,202.1769 175.3047,202.6299 C175.4507,202.7149 175.5967,202.8009 175.7437,202.8859 C176.5557,202.0689 177.5107,201.3509 178.1537,200.4169 C180.6977,196.7169 182.9087,192.8209 184.4927,188.6009 C184.7667,187.8709 184.9517,187.0909 185.0557,186.3179 C185.1737,185.4389 185.1217,184.5579 183.7047,184.0949 Z M60.6837,196.1099 L60.3127,196.5119 C63.8007,201.9839 67.2857,207.4599 70.7887,212.9229 C70.9427,213.1629 71.2687,213.2939 71.4687,213.4409 C72.7827,213.2509 72.8547,212.3679 72.6037,211.4929 C72.3247,210.5209 71.9977,209.4959 71.4207,208.6879 C69.0987,205.4339 66.7497,202.1909 64.2417,199.0799 C63.2907,197.9009 61.8827,197.0899 60.6837,196.1099 Z M124.7987,76.9969 C124.9787,77.0559 125.1587,77.1139 125.3387,77.1729 C125.7007,76.5989 126.1337,76.0589 126.4107,75.4479 C127.1697,73.7769 128.3187,72.7169 130.1717,72.2409 C131.6737,71.8549 133.0857,71.0959 134.5137,70.4489 C135.4217,70.0379 135.7807,69.3689 135.2997,68.4949 C131.5997,68.3359 128.0447,68.1839 124.2237,68.0209 C124.4217,71.1179 124.6097,74.0569 124.7987,76.9969 Z M187.5867,204.3699 C189.7127,206.2319 191.9957,206.6359 193.9677,205.6059 C195.7337,204.6839 196.6747,202.8519 196.4927,200.6879 C196.2767,198.1319 194.5717,196.0079 191.8417,195.1439 C190.4257,198.2139 188.9937,201.3179 187.5867,204.3699 Z M53.3687,216.0069 C53.4087,212.6029 51.1117,209.8779 48.1867,209.8579 C45.2417,209.8379 42.9167,212.5159 42.9217,215.9219 C42.9257,219.2939 45.3217,222.0369 48.2187,221.9839 C51.0397,221.9329 53.3307,219.2749 53.3687,216.0069 Z M111.4717,108.7849 C107.4817,109.2949 104.0657,109.6709 100.6777,110.2169 C100.0257,110.3219 99.1817,110.9739 98.9377,111.5789 C97.4787,115.2009 96.4397,118.8459 98.9727,122.5209 C99.9297,123.9089 101.1557,124.9189 102.6997,125.1769 C105.6927,125.6749 108.5417,124.8459 111.5107,123.8029 C109.4287,118.8369 108.8277,114.0459 111.4717,108.7849 Z M194.3847,238.1589 C198.3577,232.4089 201.2857,226.2489 202.6057,219.4579 C203.3357,215.6989 203.6277,211.8349 203.8557,208.0019 C204.1227,203.5349 204.1147,199.0499 204.2027,194.5729 C204.2227,193.5579 204.1437,192.5399 202.6157,192.2239 C202.4807,193.4079 202.3217,194.4829 202.2407,195.5639 C201.7267,202.4549 201.3097,209.3539 200.6997,216.2369 C200.2217,221.6369 198.4857,226.6699 195.5767,231.2649 C193.1387,235.1139 189.4877,236.1029 185.3987,234.1309 C184.1307,233.5189 182.8367,232.9099 181.4907,232.5159 C177.0647,231.2199 173.8087,233.4349 173.1737,238.1589 L194.3847,238.1589 Z M78.5757,123.7209 C77.4927,125.0419 76.4997,126.2529 75.4767,127.5009 C77.2187,128.3159 77.2427,128.3489 78.0267,127.7629 C78.6547,127.2939 79.2167,126.7359 79.8037,126.2139 C80.8647,125.2709 81.9207,124.3499 83.4027,124.0899 C86.8777,123.4779 90.3447,122.8199 93.8167,122.1889 C94.4067,122.0809 95.0037,122.0109 95.3417,121.9609 C95.1087,119.2319 94.8907,116.6939 94.6677,114.0829 C94.2147,114.0829 93.7347,113.9959 93.2977,114.0979 C90.9567,114.6389 88.8237,114.0909 86.6737,113.1439 C83.9467,111.9429 81.1377,110.9309 78.3147,109.8169 C75.4397,111.1969 72.6007,112.5379 69.7827,113.9219 C68.7987,114.4049 68.2717,115.1779 68.5877,116.4689 C70.8267,115.4359 72.5597,113.6549 74.9257,113.0029 C75.3187,112.8949 75.7377,113.0439 75.9577,113.3859 L75.9657,113.3979 C76.2267,113.8039 76.1247,114.3399 75.7387,114.6309 C73.3487,116.4299 70.4177,117.3719 68.5267,119.8599 C69.0307,120.6259 69.4717,121.2949 69.8937,121.9369 C71.4787,120.5489 72.8087,119.3299 74.1987,118.1849 C74.7797,117.7059 75.3397,117.5419 75.8187,117.8609 C76.3167,118.1929 76.3627,118.9269 75.9847,119.3909 C74.6477,121.0349 72.6527,122.1709 71.8957,124.4259 L73.7007,125.8959 C74.7257,124.6179 75.6707,123.4389 76.5267,122.3729 C76.7677,122.0719 77.1587,121.9379 77.5357,122.0169 C77.8967,122.0939 78.1047,122.1339 78.2837,122.2289 C78.8277,122.5229 78.9677,123.2429 78.5757,123.7209 Z M107.3977,148.3539 C111.7727,150.7999 116.2797,152.4439 118.8767,152.4729 C118.4207,148.1029 117.8767,143.7599 117.5377,139.4009 C117.1987,135.0559 117.0657,130.6949 116.8417,126.3399 C112.2897,125.5029 108.2437,127.5109 103.8957,127.6609 C103.3587,133.6499 103.6887,138.2149 104.7927,144.6369 C105.0617,146.2009 106.0117,147.5799 107.3977,148.3539 Z M4.6577,192.9489 C2.8687,195.7239 2.5567,198.7499 4.0747,201.8309 C5.0707,203.8519 6.3627,205.7849 7.8117,207.5139 C13.0127,213.7199 18.3077,219.8489 23.6247,225.9559 C26.9277,229.7499 30.2937,233.4919 33.7127,237.1819 C34.5657,238.1019 35.3697,238.4449 36.3477,238.2529 C37.6097,238.0049 38.2767,236.6239 37.6947,235.4769 C37.5807,235.2539 37.4557,235.0379 37.3117,234.8359 C36.6817,233.9469 35.8357,233.2139 35.1017,232.3959 C31.4327,228.3029 27.6967,224.2649 24.1287,220.0829 C21.9327,217.5089 20.3207,214.5769 19.3587,211.2889 C18.9217,209.7939 18.4237,208.3169 17.8457,206.8709 C16.2777,202.9489 14.4667,199.1289 11.3937,196.1519 C9.5407,194.3559 7.4227,193.0989 4.6577,192.9489 Z M118.7187,106.8709 C118.8447,106.4489 118.9537,106.2289 118.9707,106.0019 C119.4077,100.2889 119.8347,94.5769 121.3707,89.0169 C121.5097,88.5099 121.5647,87.8549 121.3627,87.4009 C120.5447,85.5679 119.6097,83.7869 118.6117,81.7709 C116.7477,82.6419 115.1857,83.3709 113.2067,84.2959 C113.4637,81.1069 113.6857,78.3669 113.9147,75.5319 C113.5817,75.6739 113.3217,75.7109 113.1737,75.8599 C109.3377,79.7309 106.4807,84.1819 105.4837,89.6109 C104.9887,92.3069 104.6977,95.0539 104.5117,97.7909 C104.3107,100.7399 103.9277,103.7109 104.5957,106.8689 C106.2847,106.6629 107.9167,106.5429 109.5167,106.2469 C111.4137,105.8979 113.1087,105.9279 114.1417,107.9609 C115.7787,107.5709 117.2897,107.2109 118.7187,106.8709 Z M122.5047,152.8789 C123.5857,152.6289 124.4557,152.5409 125.2347,152.2279 C128.5137,150.9079 131.7257,149.4129 135.0377,148.1879 C138.5297,146.8969 140.1037,144.1039 141.1297,140.8819 C141.6017,139.3999 141.8277,137.7999 141.9077,136.2409 C142.0567,133.3379 142.0297,130.4249 142.0457,127.5169 C142.0497,126.9149 141.9227,126.3119 141.8407,125.5739 C134.8157,125.7539 127.9307,125.9309 120.8857,126.1109 C120.4957,135.0959 120.9607,143.8269 122.5047,152.8789 Z M127.0557,80.5969 C123.8517,89.0179 121.7397,97.1679 122.4457,106.2549 C128.2087,105.3149 133.6657,104.4239 139.1357,103.5319 C139.7667,103.4289 140.2847,102.9599 140.4277,102.3359 C141.5487,97.4259 141.6007,92.4799 142.8687,87.8709 C144.3147,87.5409 144.8727,88.0239 144.8987,89.1029 C144.9147,89.7259 144.8107,90.3559 144.7187,90.9759 C144.0917,95.1979 143.4547,99.4179 142.7687,103.9849 C142.6657,104.6679 142.1347,105.2099 141.4527,105.3209 C132.4457,106.7759 123.2477,108.6449 113.8317,110.8639 C114.1727,113.0469 114.3317,115.0689 114.8227,117.0059 C115.6837,120.4029 118.5927,122.4179 122.1107,122.2689 C123.2097,122.2229 124.3107,122.1569 125.4047,122.0439 C133.0807,121.2559 140.3587,119.2449 146.9607,115.0939 C151.8737,112.0049 154.8967,107.6399 156.3047,102.0269 C157.8687,95.7889 158.5497,89.5149 157.7437,83.1039 C157.4307,80.6149 156.6097,78.3679 154.8867,76.5159 C153.6577,75.1949 152.1767,74.4689 150.2937,74.5019 C147.3467,74.5549 144.9657,75.7589 143.0377,77.8789 C140.1427,81.0609 136.6707,83.4739 132.9907,85.6229 C132.2297,86.0679 131.3997,86.5589 130.4927,86.5819 C129.5927,86.6059 129.0737,86.0659 128.6637,85.3149 C127.8617,83.8449 127.8567,82.0779 127.0557,80.5969 Z M9.3707,190.6109 C9.6097,190.8879 9.7197,191.1089 9.8977,191.2079 C13.4597,193.1929 16.0387,196.1679 17.8317,199.7229 C19.4887,203.0099 20.9437,206.4309 22.1257,209.9149 C23.1027,212.7979 24.3207,215.5069 26.2647,217.7949 C29.8267,221.9869 33.4457,226.1409 37.2367,230.1229 C39.4457,232.4439 41.4877,234.7229 41.6657,238.0489 C46.3087,238.5889 166.7737,238.3529 168.4217,237.8179 C168.7327,232.5129 169.5987,230.3049 173.0667,226.0519 C174.0107,224.8929 174.9877,223.7609 175.9417,222.6089 C176.4437,222.0029 176.9427,221.3949 177.4157,220.7669 C178.3597,219.5159 178.4407,218.2219 177.7417,216.7909 C176.9217,215.1149 175.8617,213.6939 174.1647,212.8509 C172.0557,211.8029 169.9877,210.6349 167.7947,209.7979 C158.5427,206.2669 149.2527,202.8349 139.9737,199.3759 C135.4657,197.6959 132.2517,194.6899 130.2887,190.2699 C128.2137,185.5989 126.0157,180.9809 123.8617,176.3449 C123.5397,175.6499 123.1627,174.9809 122.7117,174.1069 C121.9677,174.7869 121.3857,175.2869 120.8367,175.8229 C112.5507,183.8949 104.2077,191.9099 96.0077,200.0679 C89.6367,206.4059 82.7897,212.1939 75.9157,217.9529 C72.5557,220.7679 68.6867,221.6549 64.4607,219.9989 C63.2387,219.5199 62.0607,218.9329 60.7867,218.3619 C56.0167,223.6749 51.5917,230.8249 46.4697,235.9939 C46.0337,236.4329 45.3037,236.3689 44.9377,235.8699 C44.4897,235.2619 43.9777,234.5609 43.8997,234.4349 C42.8227,232.6999 41.6957,231.0159 40.3937,229.4389 C39.1457,227.9269 37.7797,226.5129 36.3077,225.2179 C35.5397,224.5429 34.8307,223.8019 34.0867,223.0999 C30.1437,219.3789 27.6677,214.8749 26.2907,209.6089 C25.4227,206.2889 24.1157,203.0409 22.6437,199.9319 C20.7587,195.9519 17.4597,193.2619 13.5217,191.3759 C12.2707,190.7779 10.9737,190.2239 9.3707,190.6109 Z M198.6147,238.2009 L227.0567,238.2009 C227.1347,239.2899 227.1977,240.1749 227.2747,241.2529 L23.3957,241.2529 C23.3527,240.2969 23.3167,239.4689 23.2667,238.3509 L29.9557,238.3509 C29.6527,237.7479 29.5707,237.4569 29.3937,237.2499 C22.4757,229.1859 15.5527,221.1259 8.6197,213.0739 C7.2847,211.5239 5.7567,210.1159 4.5867,208.4529 C3.1947,206.4739 1.7787,204.4119 0.9247,202.1759 C-1.8553,194.8949 1.8207,188.7229 9.4677,187.2019 C13.5367,186.3929 17.2137,187.2859 20.4037,189.6679 C23.2877,191.8219 25.9097,194.3459 28.5147,196.8439 C30.6957,198.9339 32.6247,201.2839 34.7677,203.4159 C37.2977,205.9329 41.1747,206.4169 44.2477,204.6009 C46.3257,203.3739 48.2127,201.8259 50.1037,200.4809 C49.9897,195.8469 51.8137,192.2959 55.0047,189.4329 C57.6717,187.0409 60.4637,184.7869 63.1897,182.4599 C64.2937,181.5179 66.0287,179.9019 67.0437,178.8649 C75.6867,170.0399 84.3027,161.1879 92.9627,152.3789 C95.2237,150.0789 97.6317,147.9239 99.9587,145.6889 C100.8257,144.8559 101.4627,141.9409 101.3627,140.1619 C101.1197,135.8199 101.1267,134.0179 100.7367,129.3279 C100.6587,128.4029 100.8097,127.8909 100.6367,126.8459 C99.6677,126.2259 98.6237,125.5579 97.3437,124.7399 C93.4827,125.4049 89.4787,126.1199 85.4647,126.7749 C83.8407,127.0389 82.4567,127.7089 81.4147,128.9589 C79.7537,130.9489 77.5657,131.2479 75.4267,130.3779 C71.2897,128.6949 67.8697,125.9729 66.5527,121.5339 C65.9247,119.4169 65.9997,117.0369 66.0697,114.7859 C66.1257,112.9769 67.1777,111.6359 68.9177,110.8479 C71.3737,109.7349 73.8107,108.5849 76.2197,107.3709 C77.5897,106.6809 78.8797,106.6449 80.2897,107.2459 C82.6757,108.2639 85.1637,109.0599 87.4977,110.1799 C90.3137,111.5299 93.1347,111.2929 96.1927,110.7089 C97.1197,108.9679 98.6347,107.8339 100.9947,107.6409 C100.9947,105.6329 100.8757,103.7559 101.0207,101.8999 C101.2727,98.6879 101.7287,95.4939 102.0257,92.2859 C102.4557,87.6289 104.1857,83.4889 106.6657,79.5659 C109.6867,74.7849 113.9997,71.6619 119.0607,69.4159 C119.8447,69.0679 120.6457,68.7579 121.3547,68.4649 C121.9667,67.4609 121.8787,66.6439 120.9157,66.1739 C117.5087,64.5099 115.9877,61.3869 114.8127,58.1069 C112.8337,52.5829 111.8307,46.8549 111.9937,40.9699 C112.0937,37.3579 112.3337,33.7499 112.5157,30.0599 C110.4107,28.1819 108.1517,26.3569 107.1567,23.3449 C107.0747,23.0979 107.0767,22.8259 107.1597,22.5789 C107.1667,22.5559 107.1757,22.5329 107.1837,22.5099 C107.5267,21.5489 108.8657,21.4579 109.3917,22.3319 C109.9437,23.2479 110.4827,24.1899 111.2087,24.9529 C112.1547,25.9479 113.4257,26.6359 114.5047,27.4219 C114.5047,29.4889 114.4977,31.5269 114.5067,33.5649 C114.5347,40.6569 114.6427,47.7569 116.6887,54.6199 C117.3767,56.9299 118.4237,59.1719 119.5937,61.2859 C120.7367,63.3519 122.6367,64.6409 125.0207,65.1139 C128.3657,65.7779 131.7167,66.1099 135.0947,65.3689 C139.6857,64.3609 143.0737,61.8319 145.1237,57.5419 C146.7237,54.1959 147.1757,50.5989 147.3687,46.9879 C147.6757,41.2549 147.7727,35.5099 147.9517,29.7689 C147.9727,29.0729 147.9547,28.3759 147.9547,27.7279 C149.5927,27.2379 149.8267,27.2809 150.0467,28.5359 C150.3577,30.3129 150.5607,32.1139 150.7127,33.9119 C150.8707,35.7929 150.9267,37.6819 151.0027,39.5689 C151.0377,40.4279 151.2287,41.1479 152.2267,41.2899 C153.2147,41.4309 153.7737,40.7839 153.9227,39.9959 C154.3297,37.8409 154.6647,35.6659 154.8857,33.4849 C155.0267,32.0959 154.9127,30.6809 154.9127,29.3749 C155.9577,28.8299 156.5257,29.1189 156.6797,29.9839 C157.3317,33.6519 157.5637,37.3409 156.5407,40.9729 C155.8937,43.2689 154.3627,44.2419 151.9647,44.1949 C151.5797,44.1869 151.1947,44.1939 150.6067,44.1939 C150.3207,46.6219 150.0577,49.0229 149.7487,51.4179 C149.3107,54.8109 148.3027,58.0009 146.4997,60.9489 C146.0437,61.6939 145.8297,62.6989 145.8267,63.5859 C145.8217,65.0579 146.0777,66.5319 146.2097,67.8599 C151.6327,70.7469 156.0387,74.5139 160.0117,78.8069 C160.6927,79.5429 161.1887,80.4719 161.6747,81.3629 C164.7347,86.9759 164.8197,92.9369 163.7067,99.0399 C162.9607,103.1339 162.3677,107.2579 161.5047,111.3249 C161.0517,113.4569 160.1807,115.5029 159.4667,117.5769 C158.9367,119.1159 157.6617,119.8679 156.0927,120.4369 C156.0117,121.7099 155.8927,122.9539 155.8617,124.2019 C155.7737,127.7419 155.7527,131.2849 155.6427,134.8239 C155.5807,136.8469 155.0667,138.7059 153.2627,139.9549 C153.0187,140.1249 152.8627,140.4239 152.6137,140.7259 C153.2577,144.3479 154.0087,147.9629 154.5257,151.6119 C155.3757,157.6059 156.0907,163.6199 156.8297,169.6299 C156.9517,170.6239 157.0167,171.5369 157.2737,172.3789 C157.5887,173.4099 159.0537,173.2939 159.1887,172.2239 C159.3877,170.6429 158.9137,168.6669 159.3767,167.5229 C159.6837,167.6029 160.0677,167.6189 160.3547,167.7939 C166.4737,171.5049 172.5727,175.2499 178.6967,178.9519 C180.9847,180.3349 183.3017,181.6749 185.6547,182.9449 C187.9517,184.1839 190.3867,185.0079 193.0137,185.3339 C194.3957,185.5059 195.7507,186.0259 197.0737,186.5069 C199.3607,187.3399 201.6127,188.2659 203.8807,189.1519 C206.0997,190.0179 207.2937,191.6599 207.3297,194.0199 C207.3727,196.9309 207.4037,199.8509 207.2337,202.7549 C206.9387,207.7759 206.6927,212.8139 206.0467,217.7969 C205.2087,224.2709 202.7167,230.2269 199.4897,235.8779 C199.1777,236.4239 198.8707,236.9729 198.5887,237.5349 C198.5307,237.6489 198.5947,237.8259 198.6147,238.2009 Z" id="Fill-1" fill="#000000"></path>
                <g id="Group-5" transform="translate(122.000000, 0.253000)">
                    <mask id="mask-2" fill="white">
                        <use xlink:href="#path-1"></use>
                    </mask>
                    <g id="Clip-4"></g>
                    <path d="M0.8795,7.2873 C0.5335,6.5483 1.0385,5.3893 1.4885,4.7593 C2.0245,4.0103 2.8045,3.4683 3.6035,3.0363 C5.2345,2.1543 7.0465,1.3913 8.8625,1.1063 C14.5445,0.2153 19.9785,0.8733 24.8635,4.2973 C28.0045,6.4993 29.9845,9.6823 30.4145,13.5003 C30.5925,15.0783 30.6945,16.6893 30.3945,18.2593 C30.3525,18.4753 30.2715,18.7253 30.0605,18.7853 C29.5825,18.9193 29.2715,18.0303 29.1545,17.7163 C28.4255,15.7603 28.1725,13.6853 27.5105,11.7183 C26.9925,10.1793 26.1415,8.7693 24.9925,7.6193 C23.6425,6.2663 21.9505,5.3163 20.1735,4.6423 C15.4575,2.8593 10.7665,2.9383 6.2135,5.1643 C5.1865,5.6673 4.2795,6.4923 3.4545,7.3093 C3.0015,7.7583 2.3315,8.0573 1.6895,7.8943 C1.2645,7.7873 1.0105,7.5673 0.8795,7.2873" id="Fill-3" fill="#000000" mask="url(#mask-2)"></path>
                </g>
                <path d="M145.7066,17.8518 C145.7066,17.8518 145.7066,18.9438 145.7066,19.5008 C142.7786,20.2898 138.9526,19.6228 135.9836,19.2548 C132.6666,18.8428 129.3856,18.0868 126.2966,16.7968 C124.3016,15.9638 122.5546,14.7908 121.0396,13.1458 C120.6676,12.7418 120.5786,12.1508 120.8406,11.6668 C120.8436,11.6608 120.8476,11.6548 120.8506,11.6478 C121.2266,10.9558 122.1316,10.7808 122.7526,11.2648 C122.8086,11.3078 122.8626,11.3518 122.9156,11.3978 C125.9946,14.0988 129.9766,15.3528 133.9216,16.2048 C138.9166,17.2818 143.3476,17.5348 145.7066,17.8518" id="Fill-6" fill="#000000"></path>
                <path d="M127.4366,37.365 C128.4346,37.748 129.0786,37.995 130.0026,38.349 C128.8786,41.57 127.7826,44.715 126.5846,48.149 L131.5876,48.149 C131.5306,47.358 131.4706,46.537 131.4046,45.619 C131.7336,45.372 132.0966,45.1 132.4696,44.82 C132.7036,45.016 132.9546,45.129 133.0456,45.319 C133.3826,46.027 133.7406,46.738 133.9576,47.487 C134.7096,50.085 133.8926,51.136 131.1526,51.158 C129.8146,51.169 128.4716,51.226 127.1396,51.134 C124.8156,50.972 123.3106,49.04 123.9986,46.883 C124.9976,43.752 126.2216,40.693 127.4366,37.365" id="Fill-8" fill="#000000"></path>
                <path d="M128.806,10.8704 L128.806,8.4594 C133.353,7.5814 142.581,9.8264 146.402,12.7624 C146.036,13.3914 145.658,14.0414 145.142,14.9294 C140.1,12.1724 134.693,11.1574 128.806,10.8704" id="Fill-10" fill="#000000"></path>
                <path d="M120.108,5.572 L120.106,5.587 C120.049,5.923 119.836,6.214 119.536,6.376 C114.629,9.023 113.708,10.39 116.612,16.232 C115.947,16.659 115.259,17.1 114.582,17.535 C111.678,13.796 111.282,10.23 113.394,7.573 C115.524,4.896 117.3,3.862 119.248,4.307 C119.823,4.439 120.205,4.989 120.108,5.572" id="Fill-12" fill="#000000"></path>
                <path d="M116.2472,31.7615 C117.2142,31.5435 117.9392,31.3795 118.6912,31.2095 C119.6822,32.3045 119.6552,34.0775 121.3282,34.5015 C123.0202,34.5015 123.7062,32.9745 124.9542,31.9015 C125.6232,32.2495 126.3382,32.6215 127.0432,32.9895 C125.7082,35.8445 123.2382,37.6855 121.0722,37.3585 C118.1322,36.9135 117.1032,34.6495 116.2472,31.7615" id="Fill-14" fill="#000000"></path>
                <path d="M133.2484,33.0115 C133.8954,32.6485 134.5564,32.2785 135.2234,31.9045 C136.5254,32.8105 137.1724,34.5515 139.0204,34.4885 C140.5104,34.0275 140.6204,32.4875 141.4554,31.2475 C142.2174,31.3945 143.0024,31.5445 143.7784,31.6945 C143.2244,34.9825 141.5714,37.0345 139.3784,37.3665 C137.1484,37.7045 134.4904,35.8595 133.2484,33.0115" id="Fill-16" fill="#000000"></path>
                <path d="M107.9166,13.7507 C107.9046,13.1467 108.3386,12.5867 108.9416,12.5597 C108.9446,12.5597 108.9476,12.5587 108.9506,12.5587 C109.1166,12.5527 109.2826,12.5577 109.4466,12.5667 C109.9366,12.5947 110.3546,12.9387 110.4876,13.4107 C111.7386,17.8827 111.8796,18.0377 114.5806,21.0037 C114.3846,21.3567 114.1936,21.7707 113.9376,22.1387 C113.7226,22.4467 113.4326,22.7017 113.1296,23.0307 C109.6976,20.7367 107.9966,17.6907 107.9166,13.7507" id="Fill-18" fill="#000000"></path>
                <path d="M127.7132,24.9104 C127.1532,25.5324 126.6892,26.0474 126.3122,26.4664 C124.9612,26.1564 123.7622,25.6644 122.5652,25.6694 C121.4432,25.6744 120.3222,26.2024 119.0092,26.5514 C118.5872,26.0684 118.0912,25.5024 117.6032,24.9434 C120.5752,22.0144 124.6142,21.9684 127.7132,24.9104" id="Fill-20" fill="#000000"></path>
                <path d="M142.4908,24.9402 C141.9188,25.5552 141.4518,26.0582 140.8568,26.6972 C138.6058,25.1642 136.3138,25.2602 134.0088,26.7492 C133.3998,26.1002 132.8828,25.5482 132.3728,25.0042 C135.0868,22.0172 139.5058,21.9532 142.4908,24.9402" id="Fill-22" fill="#000000"></path>
                <path d="M148.91,20.1853 C150.41,22.9253 152.365,24.9403 155.403,26.4883 C154.858,27.2003 155.029,26.9773 154.491,27.6803 C154.466,27.7123 152.702,26.8113 152.524,26.7273 C150.377,25.7023 148.036,23.6863 147.01,21.4713 L148.91,20.1853 Z" id="Fill-24" fill="#000000"></path>
                <path d="M156.1576,13.887 C156.6866,13.913 157.1206,14.321 157.1746,14.847 C157.4666,17.674 157.2386,20.163 155.9476,23.053 L154.2796,22.047 C155.3206,19.052 155.2416,17.046 155.0356,14.852 C154.9816,14.283 155.5876,13.859 156.1576,13.887" id="Fill-26" fill="#000000"></path>
                <path d="M136.9706,57.7415 C136.9806,59.0395 136.1516,59.9715 135.0236,59.9335 C133.7536,59.8915 132.6966,58.6595 132.6416,57.1605 C132.5896,55.7345 133.2396,54.9005 134.4236,54.8745 C135.7626,54.8455 136.9596,56.1935 136.9706,57.7415" id="Fill-28" fill="#000000"></path>
                <path d="M104.0462,121.9251 C104.3072,122.3111 104.2742,122.7651 103.8912,123.3191 C103.4322,123.9841 102.5892,124.0501 102.0632,123.4381 C101.5302,122.8171 101.6182,122.3651 101.9302,121.9491 C102.4502,121.2581 103.5612,121.2081 104.0462,121.9251" id="Fill-30" fill="#000000"></path>
                <path d="M133.4686,79.0657 C133.7296,79.4517 133.6956,79.9057 133.3136,80.4597 C132.8546,81.1247 132.0116,81.1907 131.4856,80.5787 C130.9526,79.9577 131.0406,79.5057 131.3526,79.0897 C131.8726,78.3987 132.9836,78.3487 133.4686,79.0657" id="Fill-32" fill="#000000"></path>
            </g>
        </g>
    </g>
</svg>