<?xml version="1.0" encoding="UTF-8"?>
<svg width="24px" height="24px" viewBox="0 0 24 24" version="1.1" xmlns="http://www.w3.org/2000/svg" xmlns:xlink="http://www.w3.org/1999/xlink">
    <!-- Generator: Sketch 52.6 (67491) - http://www.bohemiancoding.com/sketch -->
    <title>Group 5</title>
    <desc>Created with Sketch.</desc>
    <defs>
        <polygon id="path-1" points="0 24 24 24 24 0 0 0"></polygon>
    </defs>
    <g id="Working" stroke="none" stroke-width="1" fill="none" fill-rule="evenodd">
        <g id="Home" transform="translate(-509.000000, -1461.000000)">
            <g id="Group-5" transform="translate(509.000000, 1461.000000)">
                <path d="M12,0 C5.373,0 0,5.373 0,12 C0,18.627 5.373,24 12,24 C18.627,24 24,18.627 24,12 C24,5.373 18.627,0 12,0 M12,3 C16.9635,3 21,7.0365 21,12 C21,16.9635 16.9635,21 12,21 C7.0365,21 3,16.9635 3,12 C3,7.0365 7.0365,3 12,3" id="Fill-1" fill="#000000"></path>
                <mask id="mask-2" fill="white">
                    <use xlink:href="#path-1"></use>
                </mask>
                <g id="Clip-4"></g>
                <path d="M10.3605,18.4515 L13.6395,18.4515 L13.6395,9.486 L10.3605,9.486 L10.3605,18.4515 Z M10.3605,8.0325 L13.6395,8.0325 L13.6395,5.7105 L10.3605,5.7105 L10.3605,8.0325 Z" id="Fill-3" fill="#000000" mask="url(#mask-2)"></path>
            </g>
        </g>
    </g>
</svg>