<svg width="25" height="24" viewBox="0 0 25 24" fill="none" xmlns="http://www.w3.org/2000/svg">
<path d="M10.6629 22.5785C13.2488 21.8856 15.3187 20.6522 16.9083 19.0961L6.46802 8.65588C6.14032 8.61093 5.81381 8.5543 5.48913 8.48598C3.57099 8.08236 1.75918 7.27988 0.171303 6.13063C-0.156354 7.34066 -0.0105141 8.63008 0.579131 9.73636C1.16878 10.8426 2.15789 11.6826 3.34509 12.0852C2.58217 12.2656 1.78705 12.2598 1.02684 12.0683L1.04299 12.1286C1.33753 13.2266 2.00281 14.189 2.926 14.8524C3.84919 15.5159 4.97344 15.8395 6.10807 15.7686C5.45902 16.1472 4.73182 16.3719 3.98234 16.4256C4.5395 17.2892 5.35265 17.9571 6.30807 18.3359C7.26349 18.7146 8.31339 18.7853 9.31094 18.538C7.98141 20.3129 6.09341 21.5889 3.95074 22.1607C3.57212 22.2614 3.18793 22.3398 2.80013 22.3955C5.34923 23.2085 8.07844 23.2708 10.662 22.5748L10.6629 22.5785Z" fill="white"/>
<path d="M9.38877 8.74821L18.2293 17.5888C18.2294 17.5887 18.2293 17.5888 18.2293 17.5888L23.404 22.7631L24.8182 21.3489L19.3303 15.861C21.097 12.5639 21.4455 8.6882 20.5697 5.41955C20.5145 5.21369 20.4596 5.00876 20.391 4.80848C21.1415 3.88577 21.7216 2.83681 22.1043 1.71071C21.3393 2.32794 20.486 2.82693 19.573 3.19101C20.4066 2.33056 20.8992 1.19654 20.9591 0C20.174 0.80418 19.2572 1.46831 18.2483 1.96373C17.3269 1.39335 16.2432 1.14256 15.1648 1.25016C14.0865 1.35776 13.0737 1.81776 12.2832 2.55896C11.4926 3.30016 10.9684 4.28126 10.7916 5.35042C10.6768 6.04446 10.7126 6.7505 10.8914 7.42207L3.49649 0.0271927L2.08228 1.44141L9.38877 8.74821C9.38868 8.74821 9.38887 8.7482 9.38877 8.74821Z" fill="white"/>
</svg>
