<svg width="188" height="15" viewBox="0 0 188 15" fill="none" xmlns="http://www.w3.org/2000/svg">
<g clip-path="url(#clip0)">
<path d="M4.292 9.08304C5.61966 9.11451 6.75223 9.23457 8.27871 8.98128C7.77758 6.76104 7.03668 4.77505 6.13122 2.9523C5.47297 4.89144 4.47071 7.00554 4.292 9.08304ZM7.15508 0.642745C8.89079 5.32773 10.8253 10.3634 12.4687 14.8104C11.7226 15.1003 11.386 14.9407 10.5252 14.9107C9.88561 13.4628 9.75157 11.5192 8.68676 10.49C7.16252 10.6159 5.07981 10.4022 3.47441 10.6913C2.75659 11.9277 2.47066 13.5909 1.83996 14.9107C1.14374 15.0008 0.519746 15.0791 0 14.8104C1.70146 10.0178 3.50717 5.32846 5.31437 0.642745C5.96591 0.45315 6.53034 0.591503 7.15508 0.642745Z" fill="#323844"/>
<path d="M18.4979 0.399742C19.795 2.87473 21.0877 5.35631 22.3826 7.83423C23.819 5.53053 24.7602 2.73711 26.1631 0.399742C26.5912 0.399742 27.4565 0.236499 27.9003 0.502226C27.1601 2.30594 26.0558 4.34172 25.1414 6.22742C24.5681 7.40526 23.5182 8.75365 23.3015 9.84584C22.9858 11.4387 23.5919 12.8684 23.5048 14.6684C23.0073 14.8061 21.95 14.8485 21.4615 14.6684C21.3945 12.9687 21.8778 11.4644 21.562 9.94466C21.4288 9.29975 20.8025 8.43083 20.4377 7.73394C19.2411 5.44122 17.8464 2.81397 16.5537 0.600318C16.9692 0.0915578 17.6602 0.459768 18.4979 0.399742Z" fill="#323844"/>
<path d="M36.0994 9.0801C37.4256 9.11158 38.5604 9.22871 40.0846 8.98055C39.5857 6.75811 38.8441 4.76992 37.9394 2.94936C37.2781 4.88778 36.2796 7.00261 36.0994 9.0801ZM38.9588 0.640546C40.6967 5.32846 42.6312 10.359 44.2746 14.8075C43.5315 15.0974 43.1957 14.9407 42.3334 14.9063C41.6908 13.4635 41.559 11.5156 40.4949 10.4871C38.9692 10.6137 36.8865 10.3992 35.2818 10.6876C34.564 11.9255 34.2788 13.5865 33.6459 14.9063C32.9526 14.9986 32.3264 15.0769 31.8052 14.8075C33.5096 10.0156 35.3146 5.32919 37.121 0.640546C37.7741 0.447291 38.3355 0.587108 38.9588 0.640546Z" fill="#323844"/>
<path d="M69.4784 8.96952C68.6876 7.86196 66.36 7.62552 64.5714 7.96299C64.4061 9.5654 64.3197 11.4013 64.5714 13.1889C67.8693 14.2753 71.404 11.6605 69.4784 8.96952ZM68.354 6.15634C69.5171 5.15712 69.8671 3.20187 68.5573 2.23852C67.5 1.46037 65.8313 1.69755 64.5706 1.83371C64.4239 3.34242 64.3338 5.21788 64.5706 6.35765C65.4374 6.76099 67.1291 6.45354 68.354 6.15634ZM69.0689 7.0582C70.1694 7.80706 71.3802 8.27483 71.6252 9.673C72.4785 14.5483 67.109 15.1186 62.7329 14.5959C62.7776 10.6978 62.651 4.50854 62.8342 0.428213C66.975 -0.191083 72.8895 0.825705 70.6036 5.9543C70.098 6.33056 69.6557 6.76612 69.0689 7.0582Z" fill="#323844"/>
<path d="M85.98 5.45359C87.6427 2.69092 83.7156 0.916478 81.3804 1.93253C80.9932 2.95445 81.1757 5.28376 81.3804 6.45647C82.8913 6.70243 85.2123 6.72659 85.98 5.45359ZM83.9367 7.96299C85.3992 10.4782 87.4744 12.3881 89.1491 14.6969C88.7194 14.9846 87.2883 14.7262 86.8996 14.6969C84.8913 12.6853 83.5868 9.98192 81.4825 8.06327C81.0327 9.97021 81.3164 12.484 81.3804 14.6969C80.781 14.9304 80.0788 14.8053 79.5435 14.7957C79.536 10.1525 79.507 5.14175 79.4392 0.529966C82.1705 0.455299 85.3158 0.133939 86.8996 1.43475C89.2012 3.73845 87.566 8.05303 83.9367 7.96299Z" fill="#323844"/>
<path d="M99.6975 8.87071C101.024 8.90292 102.161 9.01858 103.683 8.76676C103.185 6.55018 102.446 4.56199 101.538 2.74143C100.878 4.67618 99.8777 6.79248 99.6975 8.87071ZM102.561 0.428222C104.296 5.11833 106.229 10.1459 107.874 14.5959C107.13 14.8865 106.795 14.7299 105.931 14.6977C105.291 13.2504 105.158 11.3062 104.095 10.274C102.569 10.4021 100.486 10.1854 98.8807 10.4739C98.1636 11.7132 97.8784 13.3749 97.2455 14.6977C96.5522 14.7906 95.926 14.866 95.4062 14.5959C97.1077 9.80331 98.9127 5.11906 100.721 0.428222C101.373 0.237895 101.935 0.37698 102.561 0.428222Z" fill="#323844"/>
<path d="M126.365 1.93254C126.148 2.49693 125.678 2.80438 125.239 3.14038C123.94 2.32271 122.805 1.59507 121.152 1.6324C117.687 1.71 115.293 4.8731 115.734 8.56472C116.227 12.6941 121.738 15.1252 125.034 11.883C125.659 12.1048 126.105 12.5045 126.365 13.0872C121.076 17.7414 112.721 13.3105 113.892 6.15561C114.361 3.30582 116.905 0.693944 119.926 0.126621C122.652 -0.385067 124.828 0.738598 126.365 1.93254Z" fill="#323844"/>
<path d="M142.603 0.394598C142.92 1.13834 141.998 1.71664 141.58 2.20271C140.167 3.84172 138.556 5.7223 137.185 7.42793C138.896 10.1657 141.323 12.2037 143.214 14.7614C142.617 15.044 141.889 14.7841 140.967 14.8631C139.044 12.8347 137.521 10.4161 135.448 8.53403C135.125 10.5186 135.395 12.6056 135.345 14.7621C134.764 14.8339 134.339 14.9151 133.609 14.7621C133.637 10.815 133.578 4.97271 133.609 0.596638C134.279 0.535147 134.645 0.497814 135.243 0.596638C135.372 2.64778 135.293 4.73992 135.345 6.82547C136.517 6.21935 137.175 4.78823 138.105 3.70996C139.075 2.59068 139.993 1.46848 140.865 0.396062C141.61 0.49635 142.147 0.338964 142.603 0.394598Z" fill="#323844"/>
<path d="M158.01 1.77952C155.8 2.03939 153.887 1.70339 151.981 1.98083C151.767 3.55762 151.821 4.9331 151.881 6.50403C153.152 6.84955 155.456 6.47841 157.295 6.60286C157.458 6.88542 157.458 7.72872 157.295 8.01055C155.663 8.05374 153.371 7.80778 151.98 8.10937C151.619 9.83916 151.964 11.3881 151.88 13.2336C153.791 13.7841 155.942 13.0147 158.008 13.5352C157.996 14.1398 157.9 14.366 157.603 14.8418C155.069 14.6588 152.79 14.8221 150.14 14.7423C150.007 10.3025 149.971 5.48139 150.14 0.47285C152.782 0.610471 155.135 0.222496 157.603 0.573138C158.011 0.706367 157.906 1.34689 158.01 1.77952Z" fill="#323844"/>
<path d="M172.755 0.472856C172.918 0.82057 173.056 1.37618 172.86 1.77953C171.701 1.61702 170.641 1.74805 169.591 1.6807C169.301 5.56485 169.533 10.6905 169.591 14.6398C168.99 14.8214 168.368 14.8667 167.75 14.7423C167.769 10.6839 167.772 6.36642 167.647 1.98084C166.622 1.45304 165.556 1.81027 164.272 1.77953C164.034 1.44572 164.34 0.955995 164.375 0.573144C167.197 0.231286 169.736 0.447235 172.755 0.472856Z" fill="#323844"/>
<path d="M187.8 0.472856C187.96 0.82057 188.099 1.37618 187.904 1.77953C186.742 1.61702 185.683 1.74805 184.634 1.6807C184.345 5.56485 184.576 10.6905 184.634 14.6398C184.033 14.8214 183.411 14.8667 182.791 14.7423C182.811 10.6839 182.816 6.36642 182.689 1.98084C181.665 1.45304 180.599 1.81027 179.317 1.77953C179.076 1.44572 179.385 0.955995 179.419 0.573144C182.241 0.231286 184.781 0.447235 187.8 0.472856Z" fill="#323844"/>
</g>
<defs>
<clipPath id="clip0">
<rect width="188" height="15" fill="white"/>
</clipPath>
</defs>
</svg>
