<?xml version="1.0" encoding="utf-8"?>
<!-- Generator: Adobe Illustrator 19.2.1, SVG Export Plug-In . SVG Version: 6.00 Build 0)  -->
<!DOCTYPE svg PUBLIC "-//W3C//DTD SVG 1.1//EN" "http://www.w3.org/Graphics/SVG/1.1/DTD/svg11.dtd">
<svg version="1.1" id="Layer_1" xmlns="http://www.w3.org/2000/svg" xmlns:xlink="http://www.w3.org/1999/xlink" x="0px" y="0px"
	 viewBox="0 0 64 64" style="enable-background:new 0 0 64 64;" xml:space="preserve">
<style type="text/css">
	.st0{fill:#333333;}
</style>
<path class="st0" d="M32,62.8C15,62.8,1.2,49,1.2,32C1.2,15,15,1.2,32,1.2S62.8,15,62.8,32S49,62.8,32,62.8L32,62.8z M58,36.2
	c-0.9-0.3-8.2-2.5-16.5-1.1c3.4,9.5,4.8,17.1,5.1,18.8C52.7,49.8,56.8,43.5,58,36.2L58,36.2z M42.3,56.2c-0.4-2.3-2-10.3-5.6-20
	c-0.1,0-0.1,0-0.2,0.1c-14.9,5.2-20.2,15.5-20.7,16.5c4.4,3.4,10,5.5,16.2,5.5C35.6,58.4,39.1,57.6,42.3,56.2L42.3,56.2z M12.4,49.6
	c0.6-1,7.8-13,21.5-17.3c0.3-0.1,0.7-0.2,1.1-0.3c-0.7-1.5-1.4-3-2.2-4.4c-13.2,3.9-25.9,3.7-27.1,3.7c0,0.3,0,0.5,0,0.8
	C5.6,38.8,8.2,45,12.4,49.6L12.4,49.6z M6.2,26.7c1.2,0,12,0.1,24.3-3.3c-4.3-7.8-9.1-14.3-9.8-15.3C13.4,11.7,7.9,18.5,6.2,26.7
	L6.2,26.7z M25.8,6.5c0.7,1,5.5,7.5,9.9,15.4c9.4-3.5,13.3-8.9,13.8-9.6c-4.6-4-10.7-6.6-17.4-6.6C29.8,5.7,27.8,6,25.8,6.5
	L25.8,6.5z M52.4,15.4c-0.6,0.8-4.9,6.4-14.7,10.3c0.6,1.3,1.2,2.6,1.8,3.8c0.2,0.5,0.4,0.9,0.6,1.4c8.8-1.1,17.5,0.7,18.3,0.9
	C58.3,25.6,56,19.9,52.4,15.4L52.4,15.4z"/>
</svg>
